<svg xmlns="http://www.w3.org/2000/svg" width="374.49" height="132.72" viewBox="0 0 374.49 132.72"><defs><style>.cls-1{fill:#fff;}</style></defs><title>Asset 2</title><g id="Layer_2" data-name="Layer 2"><g id="Layer_1-2" data-name="Layer 1"><path class="cls-1" d="M85.53,78.19,76.7,54.83H44.64L35.8,78.19H25L55.57,0H66.21L96.77,78.19ZM60.67,12.58,48.23,45.39H73.1ZM118,78.34h-9.59L89.13,24.42H99.76l13.78,41.79L127,24.42h10.34Zm54.68-.15L171.52,71c-2.25,3.3-8.54,8.39-15.88,8.39-9.74,0-15.73-5.84-15.73-15,0-12.13,9.59-18.13,31-20.22V41c0-6.74-4-9.14-10.34-9.14-6.59,0-11.53,2.25-17.38,5.39l-.6-8.84c6.59-3,11.68-5.09,18.72-5.09,13,0,19.47,5.24,19.47,17.23v37.6Zm-1.95-26.51c-18.87,1.95-21,8.24-21,12s3,7.19,7.94,7.19,8.54-3,13-7.49ZM212,70.7c-3.15,0-5.69-.9-7.49-2.84-2.55-2.85-2.55-5.09-2.55-10V32.66h15l-.75-8.24H201.92v-19l-9.29,1.5V24.42h-7.79v8.24h7.79v25c0,8.54,1.2,11.24,2.55,13.48,3.89,6.44,11.23,7,14.23,7A27.8,27.8,0,0,0,216.9,77l-.6-7.19a11.84,11.84,0,0,1-4.34.9m88.53-47c-7.64-1.5-12.88,2.84-17.52,9.29l-1.2-8.69h-8.39V78.19H283V43.74c3.45-5.39,6.44-8.69,10.78-10a13.07,13.07,0,0,1,8.09,0c.15,0-1.2-10-1.35-10m49,47.49c-4.34,3-10.34,7.94-20.82,7.94-5.24,0-11.38-1.05-17.23-7-6.59-6.89-7.34-17.08-7.34-22.92,0-15.28,9.44-25.32,23.22-25.32,11.53,0,20.07,9.74,21.42,21A56,56,0,0,1,349,53h-34.9c.3,7,3.89,16.63,14.38,16.63,6.44,0,12.58-2.25,18.28-5.84ZM339.29,45.39c-.15-2.1-1.5-12.73-12-12.73A12.12,12.12,0,0,0,317.87,37a14,14,0,0,0-3.45,8.39ZM255.7,78.19l-1.2-6a21.17,21.17,0,0,1-15,7c-3,0-10-1-13.93-7.64-1.5-2.4-2.69-5.09-2.69-13.78V24.27h9.44V57.82c0,5.09,0,7.64,2.55,10.49a9.81,9.81,0,0,0,7.49,3c3.89,0,8.39-3.44,11.83-7.49V24.27h9.59V78.19Z"/><path class="cls-1" d="M12.88,110.1h9v12.73a42.46,42.46,0,0,1-4.19,1,25.79,25.79,0,0,1-4.94.3c-4,0-7-1.2-9.29-3.59S0,114.89,0,110.7a15.89,15.89,0,0,1,1.65-7.19,10.28,10.28,0,0,1,4.79-4.64,15.89,15.89,0,0,1,7.19-1.65,19,19,0,0,1,7.79,1.5l-1.2,2.7a16.88,16.88,0,0,0-6.89-1.5c-3.15,0-5.69.9-7.49,2.85s-2.7,4.49-2.7,7.94c0,3.6.9,6.29,2.55,8.09s4.34,2.7,7.79,2.7a22,22,0,0,0,5.39-.6V112.8h-6Z"/><path class="cls-1" d="M36,124.18a9,9,0,0,1-6.89-2.69,10.4,10.4,0,0,1-2.55-7.34c0-3.14.75-5.69,2.4-7.49a7.85,7.85,0,0,1,6.29-2.84A7.47,7.47,0,0,1,41,106.2a9,9,0,0,1,2.1,6.44v1.95H29.51a7.18,7.18,0,0,0,1.8,5.24,6,6,0,0,0,4.64,1.8,15.88,15.88,0,0,0,6.29-1.35V123c-1,.45-2.1.75-3,1-.75,0-1.95.15-3.3.15m-.75-17.82a4.55,4.55,0,0,0-3.74,1.5,7.19,7.19,0,0,0-1.65,4.34H40.15a7.14,7.14,0,0,0-1.2-4.34,5,5,0,0,0-3.74-1.5"/><path class="cls-1" d="M54.68,121.78a4.57,4.57,0,0,0,1.5-.15c.45-.15.9-.15,1.2-.3v2.25a6.14,6.14,0,0,1-1.5.45,6.72,6.72,0,0,1-1.65.15c-3.74,0-5.69-1.95-5.69-6V106.51H45.69V105l2.85-1.2,1.2-4.19h1.8v4.49h5.69v2.25H51.53v11.53a3.66,3.66,0,0,0,.9,2.7,3.35,3.35,0,0,0,2.25,1.2"/><polygon class="cls-1" points="85.98 123.88 71.3 123.88 71.3 97.52 85.98 97.52 85.98 100.21 74.45 100.21 74.45 108.6 85.38 108.6 85.38 111.3 74.45 111.3 74.45 120.89 85.98 120.89 85.98 123.88"/><path class="cls-1" d="M104.86,123.88V111.15a4.06,4.06,0,0,0-4.64-4.79A5.66,5.66,0,0,0,95.72,108c-.9,1.05-1.5,3-1.5,5.54v10.33h-3V104.11h2.4l.45,2.7h.3a7.43,7.43,0,0,1,2.55-2.25,7.62,7.62,0,0,1,3.74-.75,8,8,0,0,1,5.39,1.65c1.2,1.2,1.8,3,1.8,5.54v12.88Z"/><path class="cls-1" d="M130,104.11v1.95l-3.6.45a8.12,8.12,0,0,1,.9,1.65,6,6,0,0,1,.45,2.25,5.8,5.8,0,0,1-1.95,4.65,7.83,7.83,0,0,1-5.39,1.8,5.56,5.56,0,0,1-1.65-.15,3,3,0,0,0-1.95,2.55,1.21,1.21,0,0,0,.6,1.2,4.21,4.21,0,0,0,2.25.45h3.45a8.08,8.08,0,0,1,4.94,1.35,4.53,4.53,0,0,1,1.65,3.89,5.31,5.31,0,0,1-2.7,4.94c-1.8,1.2-4.34,1.65-7.64,1.65a10.15,10.15,0,0,1-6-1.5,4.59,4.59,0,0,1-2.1-4,4.83,4.83,0,0,1,1.2-3.14,5.45,5.45,0,0,1,3.3-1.8,4,4,0,0,1-1.2-1,3.36,3.36,0,0,1,.15-3.59,6,6,0,0,1,1.8-1.5A6.87,6.87,0,0,1,114,114a6.56,6.56,0,0,1-.9-3.44,6.22,6.22,0,0,1,1.95-4.94,8,8,0,0,1,5.54-1.8,16.44,16.44,0,0,1,2.85.3H130m-15.73,23.07a2.54,2.54,0,0,0,1.35,2.4,7.15,7.15,0,0,0,3.89.9c2.55,0,4.34-.3,5.54-1a3.46,3.46,0,0,0,1.8-3,2.36,2.36,0,0,0-1-2.25c-.6-.45-1.95-.6-3.74-.6h-3.6a4.91,4.91,0,0,0-3.15.9,3.21,3.21,0,0,0-1,2.7m1.65-16.78a4.29,4.29,0,0,0,1.2,3.15,4.37,4.37,0,0,0,3.3,1c2.85,0,4.34-1.35,4.34-4.2s-1.5-4.49-4.34-4.49a4.66,4.66,0,0,0-3.3,1.2,4.41,4.41,0,0,0-1.2,3.29"/><path class="cls-1" d="M146.2,123.88l-.6-2.84h-.15a7.11,7.11,0,0,1-6.59,3.15,6.67,6.67,0,0,1-4.64-1.5,5.76,5.76,0,0,1-1.65-4.34c0-4,3.15-6,9.59-6.29l3.3-.15v-1a4.76,4.76,0,0,0-1-3.45c-.6-.75-1.65-1-3.15-1a12.34,12.34,0,0,0-5.54,1.5l-.9-2.4a11.39,11.39,0,0,1,3.15-1.2,13.6,13.6,0,0,1,3.45-.45c2.4,0,4,.45,5.24,1.5s1.65,2.7,1.65,4.94v13.48h-2.1Zm-6.74-2.1a5.91,5.91,0,0,0,4.34-1.5,5.76,5.76,0,0,0,1.65-4.34v-1.8l-3,.15a12.4,12.4,0,0,0-5.09,1,3.17,3.17,0,0,0-1.5,3,2.63,2.63,0,0,0,1,2.4,2.74,2.74,0,0,0,2.55,1"/><path class="cls-1" d="M170.62,104.11v1.95l-3.6.45a8.12,8.12,0,0,1,.9,1.65,6,6,0,0,1,.45,2.25,5.8,5.8,0,0,1-1.95,4.65,7.83,7.83,0,0,1-5.39,1.8,5.56,5.56,0,0,1-1.65-.15,3,3,0,0,0-1.95,2.55,1.21,1.21,0,0,0,.6,1.2,4.21,4.21,0,0,0,2.25.45h3.45a8.08,8.08,0,0,1,4.94,1.35,4.53,4.53,0,0,1,1.65,3.89,5.31,5.31,0,0,1-2.7,4.94c-1.8,1.2-4.34,1.65-7.64,1.65a10.15,10.15,0,0,1-6-1.5,4.59,4.59,0,0,1-2.1-4,4.83,4.83,0,0,1,1.2-3.14,5.45,5.45,0,0,1,3.3-1.8,4,4,0,0,1-1.2-1,3.36,3.36,0,0,1,.15-3.59,6,6,0,0,1,1.8-1.5,6.87,6.87,0,0,1-2.55-2.1,6.56,6.56,0,0,1-.9-3.44,6.22,6.22,0,0,1,1.95-4.94,8,8,0,0,1,5.54-1.8,16.44,16.44,0,0,1,2.85.3h6.59m-15.73,23.07a2.54,2.54,0,0,0,1.35,2.4,7.15,7.15,0,0,0,3.89.9c2.55,0,4.34-.3,5.54-1a3.46,3.46,0,0,0,1.8-3,2.36,2.36,0,0,0-1-2.25c-.6-.45-1.95-.6-3.74-.6h-3.6a4.91,4.91,0,0,0-3.15.9,3.21,3.21,0,0,0-1,2.7m1.65-16.78a4.29,4.29,0,0,0,1.2,3.15,4.37,4.37,0,0,0,3.3,1c2.85,0,4.34-1.35,4.34-4.2s-1.5-4.49-4.34-4.49a4.66,4.66,0,0,0-3.3,1.2,4.41,4.41,0,0,0-1.2,3.29"/><path class="cls-1" d="M182.9,124.18a9,9,0,0,1-6.89-2.69,10.4,10.4,0,0,1-2.55-7.34c0-3.14.75-5.69,2.4-7.49a7.85,7.85,0,0,1,6.29-2.84,7.47,7.47,0,0,1,5.84,2.4,9,9,0,0,1,2.1,6.44v1.95H176.46a7.18,7.18,0,0,0,1.8,5.24,6,6,0,0,0,4.64,1.8,15.88,15.88,0,0,0,6.29-1.35V123c-1,.45-2.1.75-3,1-.75,0-1.95.15-3.3.15m-.75-17.82a4.55,4.55,0,0,0-3.74,1.5,7.19,7.19,0,0,0-1.65,4.34h10.34a7.14,7.14,0,0,0-1.2-4.34,5,5,0,0,0-3.74-1.5"/><path class="cls-1" d="M208.67,121.18h-.15a7.9,7.9,0,0,1-12.13.3c-1.5-1.8-2.1-4.19-2.1-7.49a12,12,0,0,1,2.1-7.49,8,8,0,0,1,12.13.15h.3l-.15-1.35V95.87h3v28h-2.4Zm-6,.45a5.87,5.87,0,0,0,4.49-1.65q1.35-1.57,1.35-5.39V114c0-2.85-.45-4.79-1.35-6s-2.4-1.8-4.49-1.8a4.59,4.59,0,0,0-4,2.1,10.32,10.32,0,0,0-1.35,5.69,10,10,0,0,0,1.35,5.69,4.48,4.48,0,0,0,4,1.95"/><path class="cls-1" d="M233.68,121.78a4.57,4.57,0,0,0,1.5-.15c.45-.15.9-.15,1.2-.3v2.25a6.14,6.14,0,0,1-1.5.45,6.72,6.72,0,0,1-1.65.15c-3.74,0-5.69-1.95-5.69-6V106.51h-2.85V105l2.85-1.2,1.2-4.19h1.8v4.49h5.69v2.25h-5.69v11.53a3.66,3.66,0,0,0,.9,2.7,2.84,2.84,0,0,0,2.25,1.2"/><path class="cls-1" d="M257.35,114c0,3.15-.75,5.69-2.4,7.49a8.69,8.69,0,0,1-6.74,2.7,9.3,9.3,0,0,1-4.64-1.2,8.23,8.23,0,0,1-3.15-3.6,12,12,0,0,1-1-5.39c0-3.15.75-5.69,2.4-7.49a8.69,8.69,0,0,1,6.74-2.7,8.58,8.58,0,0,1,6.59,2.7,11.46,11.46,0,0,1,2.25,7.49m-15,0c0,2.55.45,4.49,1.5,5.69a6.16,6.16,0,0,0,9,0,9.18,9.18,0,0,0,1.5-5.69c0-2.55-.45-4.34-1.5-5.69a5.31,5.31,0,0,0-4.49-1.95A4.84,4.84,0,0,0,244,108.3c-1.2,1.2-1.65,3.15-1.65,5.69"/><polygon class="cls-1" points="280.72 123.88 277.72 123.88 277.72 100.21 269.33 100.21 269.33 97.52 288.96 97.52 288.96 100.21 280.57 100.21 280.57 123.88 280.72 123.88"/><path class="cls-1" d="M304.53,123.88l-.6-2.84h-.15a7.11,7.11,0,0,1-6.59,3.15,6.67,6.67,0,0,1-4.65-1.5,5.76,5.76,0,0,1-1.65-4.34c0-4,3.15-6,9.59-6.29l3.3-.15v-1a4.76,4.76,0,0,0-1-3.45,4,4,0,0,0-3.15-1,12.35,12.35,0,0,0-5.54,1.5l-.9-2.25a11.45,11.45,0,0,1,3.15-1.2,13.67,13.67,0,0,1,3.45-.45c2.4,0,4,.45,5.24,1.5s1.65,2.69,1.65,4.94v13.48Zm-6.74-2.1a5.91,5.91,0,0,0,4.34-1.5,5.75,5.75,0,0,0,1.65-4.34v-1.8l-3,.15a12.39,12.39,0,0,0-5.09,1,3.17,3.17,0,0,0-1.5,3,2.63,2.63,0,0,0,1,2.4,2.74,2.74,0,0,0,2.55,1"/><rect class="cls-1" x="312.92" y="95.87" width="3" height="28.01"/><path class="cls-1" d="M330.6,124.18a9,9,0,0,1-6.89-2.69,10.4,10.4,0,0,1-2.55-7.34c0-3.14.75-5.69,2.4-7.49a7.85,7.85,0,0,1,6.29-2.84,7.47,7.47,0,0,1,5.84,2.4,9,9,0,0,1,2.1,6.44v1.95H324.16a7.18,7.18,0,0,0,1.8,5.24,6,6,0,0,0,4.65,1.8,15.89,15.89,0,0,0,6.29-1.35V123c-1,.45-2.1.75-3,1-.9,0-1.95.15-3.3.15m-.9-17.82a4.56,4.56,0,0,0-3.74,1.5,7.19,7.19,0,0,0-1.65,4.34h10.34a7.14,7.14,0,0,0-1.2-4.34,4.55,4.55,0,0,0-3.74-1.5"/><path class="cls-1" d="M356.36,123.88V111.15a4.92,4.92,0,0,0-1-3.59,4.79,4.79,0,0,0-3.45-1.2,5.66,5.66,0,0,0-4.49,1.65c-.9,1.05-1.5,3-1.5,5.54v10.33h-3V104.11h2.4l.45,2.7h.15a7.42,7.42,0,0,1,2.55-2.25,7.62,7.62,0,0,1,3.74-.75,8,8,0,0,1,5.39,1.65c1.2,1.2,1.8,3,1.8,5.54v12.88Z"/><path class="cls-1" d="M371.79,121.78a4.58,4.58,0,0,0,1.5-.15c.45-.15.9-.15,1.2-.3v2.25a6.14,6.14,0,0,1-1.5.45,6.72,6.72,0,0,1-1.65.15c-3.74,0-5.69-1.95-5.69-6V106.51h-2.84V105l2.84-1.2,1.2-4.19h1.8v4.49h5.69v2.25h-5.69v11.53a3.66,3.66,0,0,0,.9,2.7,2.46,2.46,0,0,0,2.25,1.2"/></g></g></svg>