<svg xmlns="http://www.w3.org/2000/svg" width="239.94" height="39.5" viewBox="0 0 239.94 39.5"><defs><style>.cls-1{fill:#fff;}.cls-2{fill:#282828;}.cls-3{fill:#7db542;}.cls-4{fill:#009ed8;}.cls-5{fill:#8fc200;}.cls-6{fill:#de0f42;}.cls-7{fill:#9c0;}</style></defs><title>Asset 2</title><g id="Layer_2" data-name="Layer 2"><g id="WEBSITE"><g id="desktop"><g id="menu"><path class="cls-1" d="M120,20.75V12.95h-7.31v7.81h-6.18V.34h6.18V7.56H120V.34h6.18V20.75Z" transform="translate(-0.29)"/><path class="cls-1" d="M50.81,20.75v-15H45.33V.34H62.44V5.72H57v15Z" transform="translate(-0.29)"/><path class="cls-1" d="M65.41,20.75V.34H80.9V5.72h-9.3v2h9.09v5.39H71.59v2.23h9.3v5.39Z" transform="translate(-0.29)"/><path class="cls-1" d="M83.31,10.56C83.31,4.25,88.15,0,94.55,0a9.52,9.52,0,0,1,9.27,5.94L98.5,8.42a4.33,4.33,0,0,0-3.95-3,4.88,4.88,0,0,0-5,5.11,4.88,4.88,0,0,0,5,5.11,4.33,4.33,0,0,0,3.95-3l5.33,2.45a9.64,9.64,0,0,1-9.27,6C88.15,21.12,83.31,16.83,83.31,10.56Z" transform="translate(-0.29)"/><path class="cls-1" d="M155.91,10.56C155.91,4.29,160.78,0,167.09,0s11.17,4.29,11.17,10.56-4.87,10.56-11.17,10.56S155.91,16.83,155.91,10.56Zm16.07,0a4.9,4.9,0,1,0-9.79,0,4.9,4.9,0,1,0,9.79,0Z" transform="translate(-0.29)"/><path class="cls-1" d="M192.46,20.75l-2.82-6.43h-2.23v6.43h-6.18V.34h10.9c4.77,0,7.35,3.18,7.35,7a6.58,6.58,0,0,1-3.67,6.18l3.7,7.22Zm.73-13.44c0-1.1-1-1.59-2-1.59h-3.76V8.94h3.76C192.21,8.94,193.19,8.45,193.19,7.32Z" transform="translate(-0.29)"/><path class="cls-1" d="M202.74,20.75V.34h6.18v15h7.74v5.39Z" transform="translate(-0.29)"/><path class="cls-1" d="M219.91,20.75V.34H229c6.43,0,11.2,3.67,11.2,10.19s-4.78,10.22-11.17,10.22Zm14-10.22c0-2.75-1.59-4.81-4.9-4.81h-3v9.64H229A4.72,4.72,0,0,0,234,10.53Z" transform="translate(-0.29)"/><g id="_Group_" data-name="&lt;Group&gt;"><g id="_Group_2" data-name="&lt;Group&gt;"><path id="_Compound_Path_" data-name="&lt;Compound Path&gt;" class="cls-1" d="M41.55,18.57l-1.12-2.19h.44l-.55-1.07H40.1l-.85-1.65A6.65,6.65,0,0,0,43,7.41C43,3.54,40.37.33,35.54.33h-11v15h-.28v1.07h.6v2.19h-.32v2.19h6.25V18.65h0V16.32h-.9v-1h.65v-.86H33l.38.86h0l.43,1h0l1,2.33H35l.93,2.13H43l-1.12-2.19ZM30.78,9V5.77h3.81c1.05,0,2,.49,2,1.61s-1,1.64-2,1.64Z" transform="translate(-0.29)"/><polygon id="_Path_" data-name="&lt;Path&gt;" class="cls-1" points="20.52 15.32 20.9 15.32 20.9 0.33 14.65 0.33 14.65 7.63 7.25 7.63 7.25 0.33 1 0.33 1 15.31 0 15.31 0 16.38 2.11 16.38 2.11 18.57 1 18.57 1 20.76 7.25 20.76 7.25 18.63 8.14 18.63 8.14 16.3 6.45 16.3 6.45 15.32 7.25 15.32 7.25 13.07 14.65 13.07 14.65 15.31 14.07 15.31 14.07 16.38 15.28 16.38 15.28 18.57 14.65 18.57 14.65 20.76 20.9 20.76 20.9 18.63 21.32 18.63 21.32 16.3 20.52 16.3 20.52 15.32"/></g></g><path class="cls-2" d="M143.64,10.57" transform="translate(-0.29)"/><path class="cls-3" d="M120,12.95" transform="translate(-0.29)"/><polyline class="cls-4" points="141.43 10.57 144.52 20.76 144.52 20.76 138.34 20.76"/><polyline class="cls-5" points="135.19 10.52 132.1 0.34 132.1 0.34 138.28 0.34"/><polyline class="cls-6" points="147.66 10.52 144.57 0.34 144.57 0.34 150.75 0.34"/><path class="cls-7" d="M1.35,29.43H2.73v8.69H7.17v1.21H1.35Z" transform="translate(-0.29)"/><path class="cls-7" d="M12.93,29.27a5,5,0,0,1,5.08,5,5.08,5.08,0,1,1-10.17,0A5,5,0,0,1,12.93,29.27Zm0,9a3.74,3.74,0,0,0,3.65-3.91,3.66,3.66,0,1,0-7.31,0A3.75,3.75,0,0,0,12.93,38.23Z" transform="translate(-0.29)"/><path class="cls-7" d="M20,29.43H21.4l4.4,6.44c.37.53.83,1.43.83,1.43h0s-.1-.88-.1-1.43V29.43H28v9.9H26.59l-4.42-6.42c-.36-.55-.83-1.44-.83-1.44h0s.1.88.1,1.44v6.42H20Z" transform="translate(-0.29)"/><path class="cls-7" d="M30.65,29.43h3.28c3,0,5,1.81,5,4.94s-2,5-5,5H30.65Zm3.18,8.69a3.42,3.42,0,0,0,3.69-3.76,3.41,3.41,0,0,0-3.69-3.73H32v7.49Z" transform="translate(-0.29)"/><path class="cls-7" d="M45.44,29.27a5,5,0,0,1,5.08,5,5.08,5.08,0,1,1-10.17,0A5,5,0,0,1,45.44,29.27Zm0,9a3.74,3.74,0,0,0,3.65-3.91,3.66,3.66,0,1,0-7.31,0A3.75,3.75,0,0,0,45.44,38.23Z" transform="translate(-0.29)"/><path class="cls-7" d="M52.54,29.43h1.37l4.4,6.44c.36.53.83,1.43.83,1.43h0s-.1-.88-.1-1.43V29.43h1.39v9.9H59.11l-4.42-6.42c-.37-.55-.83-1.44-.83-1.44h0s.1.88.1,1.44v6.42H52.54Z" transform="translate(-0.29)"/><path class="cls-1" d="M66.19,38.58c0-3.53,4.85-4,4.85-6.37a1.64,1.64,0,0,0-1.78-1.64,2.53,2.53,0,0,0-2,1.26l-1-.69a3.56,3.56,0,0,1,3.13-1.88,2.86,2.86,0,0,1,3.13,2.85c0,3.25-4.73,3.76-4.75,6h4.91v1.21H66.26A4.92,4.92,0,0,1,66.19,38.58Z" transform="translate(-0.29)"/><path class="cls-1" d="M74.23,38.13h2.19V31.73c0-.31,0-.62,0-.62h0a2.46,2.46,0,0,1-.48.57L75,32.6l-.84-.87,2.37-2.3h1.23v8.69h2.16v1.21H74.23Z" transform="translate(-0.29)"/><path class="cls-1" d="M81.83,33.85h4.09v1.21H81.83Z" transform="translate(-0.29)"/><path class="cls-1" d="M88.23,38.58c0-3.53,4.85-4,4.85-6.37a1.64,1.64,0,0,0-1.78-1.64,2.53,2.53,0,0,0-2,1.26l-1-.69a3.56,3.56,0,0,1,3.13-1.88,2.86,2.86,0,0,1,3.13,2.85c0,3.25-4.73,3.76-4.75,6h4.91v1.21H88.3A4.92,4.92,0,0,1,88.23,38.58Z" transform="translate(-0.29)"/><path class="cls-1" d="M96.25,38.58c0-3.53,4.85-4,4.85-6.37a1.64,1.64,0,0,0-1.78-1.64,2.53,2.53,0,0,0-2,1.26l-1-.69a3.56,3.56,0,0,1,3.13-1.88,2.86,2.86,0,0,1,3.13,2.85c0,3.25-4.73,3.76-4.75,6h4.91v1.21H96.32A4.92,4.92,0,0,1,96.25,38.58Z" transform="translate(-0.29)"/><path class="cls-1" d="M108.94,29.43h1.46l2.27,5.36c.22.55.49,1.33.49,1.33h0s.27-.79.49-1.33L116,29.43h1.46l.8,9.9h-1.37l-.49-6.24c0-.6,0-1.46,0-1.46h0s-.29.91-.53,1.46l-2,4.46h-1.23l-2-4.46c-.22-.53-.53-1.49-.53-1.49h0s0,.88,0,1.49l-.48,6.24h-1.39Z" transform="translate(-0.29)"/><path class="cls-1" d="M125.51,36.49h-3.73l-1,2.85h-1.43l3.56-9.9h1.46l3.56,9.9H126.5Zm-1.87-5.69s-.22.9-.39,1.4l-1.11,3.14h3L124,32.2c-.17-.5-.38-1.4-.38-1.4Z" transform="translate(-0.29)"/><path class="cls-1" d="M129.41,29.43h3a5,5,0,0,1,1.85.22,2.94,2.94,0,0,1-.11,5.36v0a2.86,2.86,0,0,1,.29.45l2.1,3.84H135l-2.09-3.94h-2.12v3.94h-1.39Zm3.38,4.75a1.65,1.65,0,0,0,1.75-1.79,1.62,1.62,0,0,0-.79-1.53,2.73,2.73,0,0,0-1.36-.22h-1.6v3.55Z" transform="translate(-0.29)"/><path class="cls-1" d="M142.76,29.27a5.1,5.1,0,0,1,3.6,1.3l-.69,1a4.52,4.52,0,0,0-2.86-1.08,3.6,3.6,0,0,0-3.66,3.79,3.72,3.72,0,0,0,3.67,3.91,4.48,4.48,0,0,0,3.06-1.29l.74,1a5.31,5.31,0,0,1-3.84,1.57,5.12,5.12,0,0,1,0-10.24Z" transform="translate(-0.29)"/><path class="cls-1" d="M148.52,29.43h1.39v4.35H155V29.43h1.39v9.9H155V35h-5.13v4.35h-1.39Z" transform="translate(-0.29)"/><path class="cls-1" d="M162.16,38.58c0-3.53,4.85-4,4.85-6.37a1.64,1.64,0,0,0-1.78-1.64,2.53,2.53,0,0,0-2,1.26l-1-.69a3.56,3.56,0,0,1,3.13-1.88,2.86,2.86,0,0,1,3.13,2.85c0,3.25-4.73,3.76-4.75,6h4.91v1.21h-6.38A4.92,4.92,0,0,1,162.16,38.58Z" transform="translate(-0.29)"/><path class="cls-1" d="M170.29,34.37c0-2.85.86-5.1,3.49-5.1s3.51,2.26,3.51,5.1-.86,5.13-3.51,5.13S170.29,37.23,170.29,34.37Zm5.58,0c0-2.15-.46-3.83-2.09-3.83s-2.08,1.68-2.08,3.83.46,3.86,2.08,3.86S175.88,36.53,175.88,34.37Z" transform="translate(-0.29)"/><path class="cls-1" d="M179,38.13h2.19V31.73c0-.31,0-.62,0-.62h0a2.46,2.46,0,0,1-.48.57l-.93.91-.84-.87,2.37-2.3h1.23v8.69h2.16v1.21H179Z" transform="translate(-0.29)"/><path class="cls-1" d="M190.1,31.54a5.13,5.13,0,0,1,.58-.91v0a4.49,4.49,0,0,1-.73,0h-4.42V29.43h6.62v1l-4.47,8.95h-1.43Z" transform="translate(-0.29)"/></g></g></g></g></svg>