<svg xmlns="http://www.w3.org/2000/svg" width="268.15" height="106.01" viewBox="0 0 268.15 106.01"><defs><style>.cls-1{fill:#fff;}</style></defs><title>Asset 6</title><g id="Layer_2" data-name="Layer 2"><g id="Layer_4" data-name="Layer 4"><rect class="cls-1" width="51.88" height="6.59"/><rect class="cls-1" y="14.2" width="51.88" height="6.58"/><rect class="cls-1" y="85.23" width="51.88" height="6.59"/><rect class="cls-1" x="14.82" y="71.02" width="22.24" height="6.58"/><rect class="cls-1" x="14.82" y="56.82" width="22.24" height="6.58"/><rect class="cls-1" x="14.82" y="42.61" width="22.24" height="6.58"/><rect class="cls-1" x="14.82" y="28.41" width="22.24" height="6.58"/><rect class="cls-1" y="99.43" width="51.88" height="6.58"/><rect class="cls-1" x="164.13" y="71.02" width="22.29" height="6.58"/><polygon class="cls-1" points="198.07 77.61 219.36 77.61 221.64 71.02 195.78 71.02 198.07 77.61"/><rect class="cls-1" x="164.13" y="56.82" width="22.29" height="6.58"/><polygon class="cls-1" points="193.19 63.4 224.24 63.4 226.51 56.82 190.91 56.82 193.19 63.4"/><polygon class="cls-1" points="205.64 42.61 164.13 42.61 164.13 49.2 186.42 49.2 186.42 43.76 188.31 49.2 207.88 49.2 205.64 42.61"/><polygon class="cls-1" points="211.79 42.61 209.54 49.2 229.1 49.2 231 43.7 231 49.2 253.29 49.2 253.29 42.61 211.79 42.61"/><polygon class="cls-1" points="200.84 28.41 164.13 28.41 164.13 34.99 203.09 34.99 200.84 28.41"/><rect class="cls-1" x="231" y="71.02" width="22.29" height="6.58"/><rect class="cls-1" x="231" y="56.82" width="22.29" height="6.58"/><polygon class="cls-1" points="216.58 28.41 214.34 34.99 253.29 34.99 253.29 28.41 216.58 28.41"/><rect class="cls-1" x="231" y="99.43" width="37.15" height="6.58"/><rect class="cls-1" x="149.27" y="99.43" width="37.15" height="6.58"/><polygon class="cls-1" points="207.81 106.01 209.62 106.01 211.9 99.43 205.53 99.43 207.81 106.01"/><rect class="cls-1" x="231" y="85.23" width="37.15" height="6.59"/><rect class="cls-1" x="149.27" y="85.23" width="37.15" height="6.59"/><polygon class="cls-1" points="202.94 91.81 214.49 91.81 216.77 85.22 200.66 85.22 202.94 91.81"/><polygon class="cls-1" points="226.17 0 223.93 6.58 268.15 6.58 268.15 0 226.17 0"/><polygon class="cls-1" points="191.25 0 149.27 0 149.27 6.58 193.49 6.58 191.25 0"/><polygon class="cls-1" points="221.38 14.21 219.13 20.79 268.15 20.79 268.15 14.21 221.38 14.21"/><polygon class="cls-1" points="196.05 14.21 149.27 14.21 149.27 20.79 198.29 20.79 196.05 14.21"/><rect class="cls-1" x="74.55" y="28.41" width="22.29" height="6.58"/><rect class="cls-1" x="74.55" y="71.02" width="22.29" height="6.58"/><path class="cls-1" d="M59.69,6.59h73.13C126.22,1.18,116.41,0,106.18,0H59.69Z"/><path class="cls-1" d="M59.69,14.2h79.37a24.2,24.2,0,0,1,2.64,6.58h-82Z"/><path class="cls-1" d="M74.55,56.82h56.78A27.52,27.52,0,0,1,138,63.4H74.55Z"/><path class="cls-1" d="M119.13,28.41h23.47A22.54,22.54,0,0,1,141.54,35H119.13Z"/><path class="cls-1" d="M119.13,71h22.51a19.4,19.4,0,0,1,1.15,6.58H119.13Z"/><path class="cls-1" d="M59.69,85.23h82.46a25.22,25.22,0,0,1-2.68,6.59H59.69Z"/><path class="cls-1" d="M59.69,99.43H132.9c-6.45,5.09-15.28,6.58-25.51,6.58H59.69Z"/><path class="cls-1" d="M74.55,49.2h56.83a29.13,29.13,0,0,0,6.54-6.58H74.55Z"/></g></g></svg>