<svg xmlns="http://www.w3.org/2000/svg" width="413.28" height="52.27" viewBox="0 0 413.28 52.27"><defs><style>.cls-1{fill:#fff;}</style></defs><title>oracle</title><g id="Layer_2" data-name="Layer 2"><g id="Layer_5" data-name="Layer 5"><path class="cls-1" d="M173.5,34h26.56L186,11.38,160.28,52.26H148.54L179.88,3.19a7.47,7.47,0,0,1,12.19-.09l31.47,49.17H211.79l-5.52-9.13h-26.9Zm121.85,9.14V.5h-10V47.31a4.9,4.9,0,0,0,1.45,3.45,5.17,5.17,0,0,0,3.64,1.5h45.39l5.85-9.12ZM130.69,35.5a17.5,17.5,0,0,0,0-35H87.13V52.26h10V9.63H130a8.38,8.38,0,1,1,0,16.75H102l29.7,25.89h14.47l-20-16.77ZM25.88,52.26A25.88,25.88,0,0,1,25.88.5H56a25.89,25.89,0,0,1,0,51.77Zm29.41-9.12a16.76,16.76,0,1,0,0-33.51H26.56a16.76,16.76,0,1,0,0,33.51Zm189,9.12a25.88,25.88,0,1,1,0-51.76H280l-5.86,9.14H245a16.76,16.76,0,1,0,0,33.51h35.87L275,52.26ZM366,43.14A16.76,16.76,0,0,1,349.92,31h42.54l5.88-9.12H349.91A16.77,16.77,0,0,1,366,9.63h29.19L401.1.5H365.35a25.88,25.88,0,0,0,0,51.76h30.7l5.86-9.12Z"/><path class="cls-1" d="M402.89,9.57a4.57,4.57,0,1,1,4.58,4.56A4.56,4.56,0,0,1,402.89,9.57Zm4.58,5.83a5.82,5.82,0,1,0-5.82-5.82A5.83,5.83,0,0,0,407.46,15.4Zm-.55-9.27a4.63,4.63,0,0,1,1.71.17,1.85,1.85,0,0,1,1.26,1.83,3.47,3.47,0,0,1-.06.54A1.8,1.8,0,0,1,409,9.79a1.58,1.58,0,0,1-.3.15l1.52,2.71h-1.46l-1.32-2.49h-.88v2.49h-1.29V6.13Zm.46,2.94a1.23,1.23,0,0,0,1.08-.41.93.93,0,0,0,.15-.56.88.88,0,0,0-.48-.79,3.35,3.35,0,0,0-1.2-.11h-.35V9.08Z"/></g></g></svg>