<svg xmlns="http://www.w3.org/2000/svg" width="946.28" height="114.02" viewBox="0 0 946.28 114.02"><defs><style>.cls-1,.cls-2{fill:#fff;}.cls-2{fill-rule:evenodd;}</style></defs><title>sapsuccessfactors</title><g id="Layer_2" data-name="Layer 2"><g id="Layer_6" data-name="Layer 6"><path class="cls-1" d="M548.55,31.11c-8.57,0-14.33,6-14.33,14.93,0,9.75,9.38,19.1,20.23,29.91l6.52,6.5,6.51-6.5C578.35,65.14,587.72,55.8,587.72,46c0-8.93-5.75-14.93-14.33-14.93a13.41,13.41,0,0,0-9.69,4.16L561,38.1l-2.74-2.83a13.41,13.41,0,0,0-9.69-4.16M561,93.25l-11.9-11.89C537,69.35,526.59,59,526.59,46s9.24-22.56,22-22.56A20.85,20.85,0,0,1,561,27.57a20.85,20.85,0,0,1,12.43-4.08c12.72,0,22,9.48,22,22.56,0,12.92-10.43,23.3-22.49,35.31L561,93.25Z"/><path class="cls-1" d="M489.72,73.94l3.34-4.7a15.49,15.49,0,0,0,9.68,3.61c2.61,0,4.44-.89,4.44-2.72s-1.47-2.66-5.29-3.34C496.62,65.84,491,64.58,491,58c0-5.59,4.59-8.83,10.81-8.83,5.69,0,9.14,1.46,12.23,3.92l-3.29,4.76a14.88,14.88,0,0,0-8.21-3c-2.4,0-3.75.94-3.75,2.46,0,1.67,1.51,2.35,5,3,5.49.94,11.3,2.19,11.3,8.52,0,6.74-5.86,9.4-12.28,9.4-6.11,0-10.2-1.88-13-4.29Zm-19.33,3.71V49.79h8.41v4.65h.05a10.56,10.56,0,0,1,9.41-5.23h.26l-.1,7.47c-.31-.05-1.67-.16-2.2-.16a9.3,9.3,0,0,0-7.42,3.82v17.3ZM457.12,63.8c0-4.65-1.62-8.42-5.79-8.42-4,0-5.86,3.4-5.86,8.42,0,4.65,1.57,8.52,5.86,8.52,4,0,5.79-3.45,5.79-8.52Zm-20.06-.05c0-10.92,7.48-14.53,14.27-14.53s14.21,3.61,14.21,14.53-7.47,14.48-14.21,14.48-14.27-3.66-14.27-14.48Zm-18,6.06V55.91h-4.65V49.79H419V40.23h8.36v9.56h7.16v6.11h-7.16V68c0,3,.84,3.92,3.87,3.92a10.27,10.27,0,0,0,2.77-.32v6a40.57,40.57,0,0,1-5.54.42c-8.25,0-9.46-3-9.46-8.2Zm-32.75-6.06c0-11.13,7.89-14.53,14.05-14.53,7.58,0,10.51,4,12.13,8.52l-7.06,2.35c-1.1-3.55-2.72-4.7-5.17-4.7-3.4,0-5.54,2.87-5.54,8.42,0,5,1.57,8.52,5.44,8.52,2.25,0,4.28-1.2,5.48-5l7,2.4c-1.77,4.34-5.22,8.47-12.6,8.47-6.52,0-13.68-3.66-13.68-14.48Zm-12.8,5.59V64.16c-6.64.68-9.46,2.35-9.46,4.91,0,1.78,1.25,2.67,3.08,2.67a8.63,8.63,0,0,0,6.38-2.41Zm-17.67,1.2c0-6.43,5.44-10,17.67-11v-.68c0-2-1-3.34-3.76-3.34A14.82,14.82,0,0,0,360.56,59L357,54.19c2.77-2.51,7-5,13.9-5,7.63,0,10.77,3.76,10.77,10.92V70.85c0,3.34.2,5.38.78,6.79h-8.36a13.28,13.28,0,0,1-.62-4.07,12.33,12.33,0,0,1-9.73,4.49c-4.27,0-7.94-2.77-7.94-7.53Zm-23.63,7.11V39h25.55v7.11h-17v9.4h12.13v6.74H340.69V77.65Zm-30.39-3.71,3.34-4.7a15.42,15.42,0,0,0,9.66,3.61c2.62,0,4.44-.89,4.44-2.72s-1.47-2.66-5.27-3.34C308.67,65.84,303,64.58,303,58c0-5.59,4.6-8.83,10.81-8.83,5.71,0,9.15,1.46,12.23,3.92l-3.29,4.76a14.9,14.9,0,0,0-8.2-3c-2.41,0-3.77.94-3.77,2.46,0,1.67,1.52,2.35,5,3,5.49.94,11.28,2.19,11.28,8.52,0,6.74-5.85,9.4-12.28,9.4-6.11,0-10.19-1.88-13-4.29Zm-27.92,0,3.35-4.7a15.42,15.42,0,0,0,9.66,3.61c2.62,0,4.44-.89,4.44-2.72s-1.47-2.66-5.27-3.34c-5.28-.94-10.93-2.2-10.93-8.73,0-5.59,4.6-8.83,10.81-8.83,5.71,0,9.15,1.46,12.23,3.92l-3.29,4.76a14.89,14.89,0,0,0-8.2-3c-2.41,0-3.77.94-3.77,2.46,0,1.67,1.52,2.35,5,3,5.49.94,11.28,2.19,11.28,8.52,0,6.74-5.85,9.4-12.28,9.4-6.11,0-10.19-1.88-13-4.29ZM264,61c-.41-3.92-2.2-5.8-5.32-5.8-2.62,0-4.86,1.73-5.49,5.8Zm-19.27,2.72c0-10.81,8.26-14.53,14-14.53s12.8,2.88,12.8,15.52V66H253.11c.41,4.6,3,6.38,6.47,6.38A12.79,12.79,0,0,0,267.84,69l3.24,5A18,18,0,0,1,259,78.22c-7.26,0-14.21-3.71-14.21-14.48Zm-28.17,0c0-11.1,7.87-14.49,14-14.49,7.56,0,10.48,4,12.09,8.49l-7,2.35c-1.09-3.54-2.71-4.69-5.15-4.69-3.39,0-5.52,2.87-5.52,8.39,0,4.95,1.57,8.49,5.42,8.49,2.24,0,4.26-1.2,5.46-5l6.94,2.4c-1.77,4.32-5.21,8.44-12.56,8.44-6.5,0-13.65-3.65-13.65-14.43Zm-29,0c0-11.13,7.89-14.53,14.05-14.53,7.58,0,10.51,4,12.13,8.52l-7,2.35c-1.1-3.55-2.72-4.7-5.18-4.7-3.4,0-5.54,2.87-5.54,8.42,0,5,1.57,8.52,5.44,8.52,2.25,0,4.29-1.2,5.49-5l6.94,2.4c-1.77,4.34-5.22,8.47-12.59,8.47-6.54,0-13.7-3.66-13.7-14.48ZM156.9,70.12V49.79h8.41V67.67c0,2.51.94,3.87,3.29,3.87s4.17-1.2,6.06-2.82V49.79h8.41V77.65h-8.41V73.31a12,12,0,0,1-9.61,4.91c-4.76,0-8.16-2.35-8.16-8.1Zm-36-1.25,6.43-3.81a11.45,11.45,0,0,0,10.44,6.58c3.92,0,6.74-1.46,6.74-4.44s-2.76-4.18-7.84-5.59c-6.89-1.93-14.11-3.71-14.11-11.81,0-7.21,5.64-11.55,14-11.55,7.94,0,12.65,3.82,15.37,7.94l-5.91,4.49a11.52,11.52,0,0,0-9.51-5.49c-3.6,0-5.59,1.57-5.59,3.87,0,3.08,2.87,4.18,7.94,5.59,6.79,1.83,14,4,14,12,0,6.22-4.7,11.76-15.46,11.76-8.36,0-13.59-4-16.47-9.51ZM81.72,57.32h5.8c5.27,0,7.26-2,7.26-5.75s-1.93-5.65-7.26-5.65h-5.8V57.32ZM73.25,77.65V39H87.31c8.25,0,15.78,2.2,15.78,12.39,0,10.4-8.16,12.54-15.89,12.54H81.72V77.65ZM46.39,62.86h9.1L51,49.69h-.1L46.39,62.86ZM33.48,77.65l13.7-38.83h8.09L69,77.65H60.35L57.47,69H44.31l-3,8.62ZM0,68.87l6.43-3.81a11.45,11.45,0,0,0,10.44,6.58c3.92,0,6.74-1.46,6.74-4.44S20.86,63,15.78,61.6C8.88,59.67,1.67,57.89,1.67,49.79c0-7.21,5.64-11.55,14-11.55,7.94,0,12.65,3.82,15.37,7.94l-5.91,4.49a11.52,11.52,0,0,0-9.51-5.49C12,45.2,10,46.76,10,49.06c0,3.08,2.87,4.18,7.94,5.59,6.79,1.83,14,4,14,12,0,6.22-4.7,11.76-15.46,11.76-8.36,0-13.59-4-16.47-9.51Z"/><path class="cls-2" d="M800.06,43.64l-7.19,22.69a20.72,20.72,0,0,0,7.27,1.27,21.33,21.33,0,0,0,7.13-1.21L800.2,43.64Zm53.85-7.36h-5V54.56h5c6.66,0,12-2.22,12-9.26,0-6.81-5.32-9-12-9Zm2.33,33.88h-7.33V91.94H815.3L812,81.52a38.07,38.07,0,0,1-11.82,1.82A37.61,37.61,0,0,1,788,81.42l-3.46,10.52H764l2.28-6.08c-.28.24-.54.48-.84.72-5.13,4.13-11.56,6.4-19.52,6.55H744.7A52.39,52.39,0,0,1,719,86.3l7-13.92c7.59,4.49,12.36,5.49,18.78,5.36,3.33-.06,5.75-.67,7.31-2.29a5.33,5.33,0,0,0,1.49-3.54c.06-3.62-5.08-5.31-11.38-7.26-5.11-1.58-10.9-3.74-15.43-7.06-5.37-3.94-7.92-8.88-7.79-15.84a19.15,19.15,0,0,1,5.43-13.23c5-5.16,13-8.29,22.69-8.29h0a61.35,61.35,0,0,1,25.7,6.08L765,40c-8-3.87-12-4.23-16.6-4.48-6.79-.37-10.22,2.07-10.27,4.69-.06,3.19,6.42,6.08,12.54,8,9.26,2.94,21,6.87,22.83,18.25l16.92-45.11h19.65l19.82,53.94V21.42h22.69c21.68,0,31.86,7.73,31.86,24.57,0,15.12-10.48,24.15-28.21,24.15ZM715.8,0V114H832.28l114-114Z"/><path class="cls-1" d="M864.35,106v-2.63h1.76c.89,0,1.84.19,1.84,1.24,0,1.33-1,1.39-2,1.39Zm0,1.1h1.48l2.23,3.68h1.46L867.09,107a2.21,2.21,0,0,0,2.22-2.35c0-1.66-1-2.41-3-2.41h-3.24v8.5h1.28V107.1Zm1.57,6.81a7.38,7.38,0,1,0-7.5-7.4,7.37,7.37,0,0,0,7.5,7.4Zm-6-7.4a6,6,0,1,1,6,6.17,6,6,0,0,1-6-6.17Z"/></g></g></svg>