<svg xmlns="http://www.w3.org/2000/svg" viewBox="0 0 236.57 28.5"><defs><style>.cls-1,.cls-2{fill:#fff;}.cls-2{fill-rule:evenodd;}</style></defs><title>sapsuccessfactors</title><g id="Layer_2" data-name="Layer 2"><g id="WEBSITE"><g id="desktop"><path class="cls-1" d="M137.14,7.78a3.46,3.46,0,0,0-3.58,3.73c0,2.44,2.34,4.77,5.06,7.48l1.63,1.63L141.87,19c2.72-2.7,5.06-5,5.06-7.48a3.46,3.46,0,0,0-3.58-3.73,3.35,3.35,0,0,0-2.42,1l-.69.71-.68-.71a3.35,3.35,0,0,0-2.42-1m3.11,15.53-3-3c-3-3-5.62-5.6-5.62-8.83a5.38,5.38,0,0,1,5.49-5.64,5.21,5.21,0,0,1,3.11,1,5.21,5.21,0,0,1,3.11-1,5.38,5.38,0,0,1,5.49,5.64c0,3.23-2.61,5.83-5.62,8.83l-3,3Z"/><path class="cls-1" d="M122.43,18.48l.84-1.18a3.87,3.87,0,0,0,2.42.9c.65,0,1.11-.22,1.11-.68s-.37-.67-1.32-.84c-1.32-.24-2.73-.55-2.73-2.18,0-1.4,1.15-2.21,2.7-2.21a4.49,4.49,0,0,1,3.06,1l-.82,1.19a3.72,3.72,0,0,0-2.05-.76c-.6,0-.94.24-.94.61s.38.59,1.24.75c1.37.23,2.82.55,2.82,2.13s-1.46,2.35-3.07,2.35a4.8,4.8,0,0,1-3.25-1.07Zm-4.83.93v-7h2.1v1.16h0a2.64,2.64,0,0,1,2.35-1.31h.06l0,1.87-.55,0a2.33,2.33,0,0,0-1.85,1v4.32ZM114.28,16c0-1.16-.4-2.1-1.45-2.1s-1.46.85-1.46,2.1.39,2.13,1.46,2.13,1.45-.86,1.45-2.13Zm-5,0a3.56,3.56,0,1,1,7.12,0,3.56,3.56,0,1,1-7.12,0Zm-4.51,1.52V14H103.6V12.45h1.16V10.06h2.09v2.39h1.79V14h-1.79v3c0,.74.21,1,1,1a2.57,2.57,0,0,0,.69-.08v1.5a10.14,10.14,0,0,1-1.39.1c-2.06,0-2.36-.75-2.36-2.05Zm-8.19-1.52a3.33,3.33,0,0,1,3.51-3.63,2.88,2.88,0,0,1,3,2.13l-1.76.59c-.27-.89-.68-1.18-1.29-1.18-.85,0-1.39.72-1.39,2.1s.39,2.13,1.36,2.13c.56,0,1.07-.3,1.37-1.24l1.74.6A3.14,3.14,0,0,1,100,19.56a3.26,3.26,0,0,1-3.42-3.62Zm-3.2,1.4V16c-1.66.17-2.36.59-2.36,1.23,0,.44.31.67.77.67a2.16,2.16,0,0,0,1.6-.6Zm-4.42.3c0-1.61,1.36-2.5,4.42-2.74v-.17c0-.51-.26-.84-.94-.84a3.71,3.71,0,0,0-2.29.86l-.89-1.2a4.89,4.89,0,0,1,3.47-1.24c1.91,0,2.69.94,2.69,2.73v2.68a4.77,4.77,0,0,0,.19,1.7H93.52a3.32,3.32,0,0,1-.16-1,3.08,3.08,0,0,1-2.43,1.12,1.86,1.86,0,0,1-2-1.88ZM83,19.41V9.74h6.39v1.78H85.17v2.35h3v1.68h-3v3.85Zm-7.6-.93.84-1.18a3.86,3.86,0,0,0,2.42.9c.65,0,1.11-.22,1.11-.68s-.37-.67-1.32-.84c-1.32-.24-2.73-.55-2.73-2.18,0-1.4,1.15-2.21,2.7-2.21a4.48,4.48,0,0,1,3.06,1l-.82,1.19a3.72,3.72,0,0,0-2-.76c-.6,0-.94.24-.94.61s.38.59,1.24.75c1.37.23,2.82.55,2.82,2.13s-1.46,2.35-3.07,2.35a4.79,4.79,0,0,1-3.25-1.07Zm-7,0,.84-1.18a3.86,3.86,0,0,0,2.42.9c.65,0,1.11-.22,1.11-.68s-.37-.67-1.32-.84c-1.32-.24-2.73-.55-2.73-2.18,0-1.4,1.15-2.21,2.7-2.21a4.48,4.48,0,0,1,3.06,1l-.82,1.19a3.72,3.72,0,0,0-2-.76c-.6,0-.94.24-.94.61s.38.59,1.24.75c1.37.23,2.82.55,2.82,2.13s-1.46,2.35-3.07,2.35a4.8,4.8,0,0,1-3.25-1.07ZM66,15.26c-.1-1-.55-1.45-1.33-1.45s-1.22.43-1.37,1.45Zm-4.82.68a3.42,3.42,0,0,1,3.5-3.63c1.44,0,3.2.72,3.2,3.88v.31H63.28a1.51,1.51,0,0,0,1.62,1.59A3.2,3.2,0,0,0,67,17.26l.81,1.25a4.5,4.5,0,0,1-3,1,3.27,3.27,0,0,1-3.55-3.62Zm-7,0a3.32,3.32,0,0,1,3.5-3.62,2.87,2.87,0,0,1,3,2.12L58.91,15c-.27-.89-.68-1.17-1.29-1.17-.85,0-1.38.72-1.38,2.1s.39,2.12,1.36,2.12c.56,0,1.07-.3,1.37-1.24l1.73.6a3.13,3.13,0,0,1-3.14,2.11,3.25,3.25,0,0,1-3.41-3.61Zm-7.26,0a3.33,3.33,0,0,1,3.51-3.63,2.88,2.88,0,0,1,3,2.13L51.67,15c-.27-.89-.68-1.18-1.3-1.18-.85,0-1.39.72-1.39,2.1s.39,2.13,1.36,2.13c.56,0,1.07-.3,1.37-1.24l1.74.6a3.14,3.14,0,0,1-3.15,2.12,3.26,3.26,0,0,1-3.42-3.62Zm-7.67,1.59V12.45h2.1v4.47c0,.63.24,1,.82,1a2.37,2.37,0,0,0,1.52-.71V12.45h2.1v7h-2.1V18.33a3,3,0,0,1-2.4,1.23,1.83,1.83,0,0,1-2-2Zm-9-.31,1.61-1a2.86,2.86,0,0,0,2.61,1.65c1,0,1.69-.37,1.69-1.11s-.69-1-2-1.4c-1.72-.48-3.53-.93-3.53-3,0-1.8,1.41-2.89,3.49-2.89a4.35,4.35,0,0,1,3.84,2l-1.48,1.12a2.88,2.88,0,0,0-2.38-1.37c-.9,0-1.4.39-1.4,1,0,.77.72,1,2,1.4,1.7.46,3.5,1,3.5,3,0,1.55-1.17,2.94-3.86,2.94a4.33,4.33,0,0,1-4.12-2.38Zm-9.78-2.89h1.45c1.32,0,1.82-.51,1.82-1.44s-.48-1.41-1.82-1.41H20.43v2.85Zm-2.12,5.08V9.74h3.52c2.06,0,3.94.55,3.94,3.1s-2,3.14-4,3.14H20.43v3.44Zm-6.72-3.7h2.28l-1.11-3.29h0L11.6,15.71Zm-3.23,3.7L11.79,9.7h2l3.42,9.71H15.09l-.72-2.16H11.08l-.75,2.16ZM0,17.22l1.61-1a2.86,2.86,0,0,0,2.61,1.65c1,0,1.69-.37,1.69-1.11s-.69-1-2-1.4c-1.72-.48-3.53-.93-3.53-3,0-1.8,1.41-2.89,3.49-2.89a4.35,4.35,0,0,1,3.84,2L6.27,12.67A2.88,2.88,0,0,0,3.89,11.3c-.9,0-1.4.39-1.4,1,0,.77.72,1,2,1.4,1.7.46,3.5,1,3.5,3,0,1.55-1.17,2.94-3.86,2.94A4.33,4.33,0,0,1,0,17.22Z"/><path class="cls-2" d="M200,10.91l-1.8,5.67a5.18,5.18,0,0,0,1.82.32,5.33,5.33,0,0,0,1.78-.3L200,10.91Zm13.46-1.84h-1.25v4.57h1.25c1.67,0,3-.55,3-2.32s-1.33-2.26-3-2.26Zm.58,8.47h-1.83V23h-8.4l-.83-2.6a9.52,9.52,0,0,1-3,.45,9.4,9.4,0,0,1-3-.48L196.14,23H191l.57-1.52-.21.18a7.74,7.74,0,0,1-4.88,1.64h-.29a13.1,13.1,0,0,1-6.42-1.71l1.75-3.48a7.84,7.84,0,0,0,4.7,1.34,2.49,2.49,0,0,0,1.83-.57,1.33,1.33,0,0,0,.37-.89c0-.9-1.27-1.33-2.84-1.82a13.25,13.25,0,0,1-3.86-1.76,4.44,4.44,0,0,1-1.95-4,4.79,4.79,0,0,1,1.36-3.31,7.8,7.8,0,0,1,5.67-2.07h0a15.34,15.34,0,0,1,6.43,1.52l-2,3.43a9.27,9.27,0,0,0-4.15-1.12c-1.7-.09-2.56.52-2.57,1.17s1.61,1.52,3.13,2c2.31.74,5.26,1.72,5.71,4.56L197.6,5.36h4.91l5,13.49V5.36h5.67c5.42,0,8,1.93,8,6.14,0,3.78-2.62,6-7.05,6ZM178.95,0V28.5h29.12L236.57,0Z"/><path class="cls-1" d="M216.09,26.5v-.66h.44c.22,0,.46,0,.46.31s-.24.35-.51.35Zm0,.27h.37l.56.92h.36l-.61-.94a.55.55,0,0,0,.56-.59c0-.42-.25-.6-.75-.6h-.81v2.12h.32v-.92Zm.39,1.7a1.84,1.84,0,1,0-1.87-1.85,1.84,1.84,0,0,0,1.87,1.85ZM215,26.63a1.5,1.5,0,1,1,1.5,1.54,1.5,1.5,0,0,1-1.5-1.54Z"/></g></g></g></svg>