<svg xmlns="http://www.w3.org/2000/svg" width="490.4" height="137.08" viewBox="0 0 490.4 137.08"><defs><style>.cls-1{fill:#fff;}</style></defs><title>Asset 4</title><g id="Layer_2" data-name="Layer 2"><g id="Layer_2-2" data-name="Layer 2"><path class="cls-1" d="M85.34,118.65a105.2,105.2,0,0,1-15.66,4.8,14.23,14.23,0,0,1-1.54-1.57,8.94,8.94,0,0,1-1.27-1.71s8.68-2.11,16.7-5a100.67,100.67,0,0,0,17.78-8.94,12,12,0,0,1,.44,1.79c.17,1,.28,1.87.28,1.87a80.25,80.25,0,0,1-16.73,8.75ZM59.74,82.37C36.85,88.23,23.82,85,23.82,85s-.51-3.14-.72-6.36c-.11-1.6-.28-5.44-.28-5.44s14,2.77,33.34-2.13C78,65.58,89.26,53.65,89.26,53.65s2.3,2.81,3.45,4.41,3.83,5.6,3.83,5.6-13.91,12.84-36.8,18.7Zm-34.1-33.2c.44-2,.89-3.91.89-3.91a42.31,42.31,0,0,0,9.46.39,80.22,80.22,0,0,0,10.2-1.7l2.51,9.38a53.29,53.29,0,0,1-12.65,2.5,42.59,42.59,0,0,1-11.62-.7s.77-4,1.2-6Zm75.44-19.3c.44-1.54.75-3.08.75-3.08s4.07,2.93,6,4.7,5,5,5,5-.35,2.15-.74,3.62c-.31,1.16-.5,1.64-1,3.14,0,0-3.22-3.3-5.68-5.46-2.28-2-5.67-4.51-5.67-4.51a25.67,25.67,0,0,0,1.37-3.37Zm26,21.45c-2-9.69-4-12.84-4-12.84s4.52,24.16-17.33,42.19a93.12,93.12,0,0,0-4.3-9c-1.51-2.73-3.24-5.5-4.92-8,8.48-7.58,12.59-15.21,14.56-20.45a34.44,34.44,0,0,1,4.39,5.72s1-.58,2-4.32a29,29,0,0,0-.73-17.18s-1.33-2.24-6.6-7.84A65,65,0,0,0,94.88,7.9s8.23,7.94,7.17,17.62c0,.43-.11.83-.18,1.23-.48-.32-1-.62-1.43-.9-11.86-7-20.72-8.44-20.72-8.44s-1.4,13.27-23.45,23A67,67,0,0,1,46.2,43.88l-2.49-9.45a45.7,45.7,0,0,1-11.6,1.89C26.79,36.4,19,35.84,18.53,27c-.37-7,7.25-14.51,7.25-14.51a99.2,99.2,0,0,0-9,7.86C12.13,25.13,7.7,33.5,7.7,33.5s-1.29,2-.74,5.9A18.33,18.33,0,0,0,17.07,52.58a33.53,33.53,0,0,0,7.35,2.51,96.76,96.76,0,0,0-1.59,17c0,.36,0,.72,0,1.08a34.8,34.8,0,0,1-11.8-3.86C1.82,63.85.73,52.76.73,52.76S-2,69.66,3.13,84.64A72.86,72.86,0,0,0,13.57,104a49.66,49.66,0,0,0,25.69,7.74,85.8,85.8,0,0,0,21.39-1,47.94,47.94,0,0,1-2.41-4.91c-.31-.72-.8-2.35-.92-2.56a115.14,115.14,0,0,0,24.69-8c15.46-7.16,23.77-14.62,23.77-14.62s.47,1.08,1.25,3.14,1.63,4.58,1.63,4.58a88.12,88.12,0,0,1-21.17,13.83,123,123,0,0,1-26.74,8.54c.29.54.6,1.09.93,1.65a73.41,73.41,0,0,0,5.11,7.7c-2.29.48-4.66.89-7.11,1.22-18.33,2.46-31.4-3.59-31.4-3.59S46.53,130,67.18,128.69c18.5-1.16,32.79-11,33.4-11.37.33-.21,1.63-1.22,1.63-1.22a32.44,32.44,0,0,0,0-4.76c0-.5-.06-1-.11-1.39,8.48-5.9,15.86-13.88,19.12-20.06,5.74-10.84,8.42-26.33,5.93-38.56Z"/><path class="cls-1" d="M67.86,8.74s5-.4,7.22-.46a94.47,94.47,0,0,1,10.74.31s-1.44-2.9-8.35-5.77A44.6,44.6,0,0,0,62.94,0,59.73,59.73,0,0,0,41,4.36a67.94,67.94,0,0,0-7.16,3.33,19.51,19.51,0,0,1,2.34-1,55.59,55.59,0,0,1,12-2.89c14.58-2.2,19.63,4.9,19.63,4.9Z"/><path class="cls-1" d="M179.6,50.88a20.09,20.09,0,0,0-8.87,1.87v48.09a21,21,0,0,0,7.74,1.25c11.87,0,16.87-10.37,16.87-26.11s-5.5-25.11-15.74-25.11Zm-1.87,60.71c-9,0-17.11-2-22.11-4.88V12.16h15.11V44.51a29.79,29.79,0,0,1,12.74-2.62c16.37,0,27,12.74,27,32.85,0,22.61-11.62,36.85-32.73,36.85Z"/><path class="cls-1" d="M250.19,50.63c-9.62,0-14.49,9.12-14.49,22.36v1.37L263.43,70c-.13-12.24-4.12-19.36-13.24-19.36ZM236.57,82.11c1.13,11.74,7.75,18.74,18.86,18.74A37.9,37.9,0,0,0,272,97l3.62,9.74c-5.5,2.87-13.87,4.88-22.36,4.88-20.36,0-31.61-14.12-31.61-35.23s10.75-34.85,29-34.85C268.17,41.51,278,53,278,74v2l-41.47,6.12Z"/><path class="cls-1" d="M329.76,110.22V64.13c0-8.74-3.5-13-12.87-13A24.4,24.4,0,0,0,307,52.88v57.34H291.78V46.51a64.67,64.67,0,0,1,25.11-4.87c19.61,0,28.11,8.24,28.11,22.61v46Z"/><path class="cls-1" d="M361.74,110.22V42.89H377v67.33Zm7.62-78.82c-4.63,0-8.49-3.37-8.49-7.62S364.73,16,369.36,16s8.49,3.5,8.49,7.74S374,31.4,369.36,31.4Z"/><path class="cls-1" d="M412.83,52.51v57.71H397.59V52.51H390.1V42.89h7.49V34.65c0-14,8.12-22.61,22.49-22.61a28.07,28.07,0,0,1,3.75.25V21.9h-1.25c-6.87,0-9.74,4.62-9.74,12.37v8.62h11v9.62Z"/><path class="cls-1" d="M459.17,137.08H443.06l11.24-26.86L431.69,42.89h16.37L459.8,87.36a56,56,0,0,1,1.5,9.49h.25a63.58,63.58,0,0,1,1.88-9.49l12.49-44.47H490.4l-31.23,94.19Z"/></g></g></svg>