<svg xmlns="http://www.w3.org/2000/svg" width="559.34" height="108.44" viewBox="0 0 559.34 108.44"><defs><style>.cls-1{fill:#fff;}</style></defs><title>Asset 5</title><g id="Layer_2" data-name="Layer 2"><g id="Layer_3" data-name="Layer 3"><path class="cls-1" d="M138.19,36.57H138V30.79H122.73V85.09H139V55.25c0-8.22,5.28-9.78,12.82-10V28.93c-9.39,0-12.23,5-13.6,7.63Z"/><path class="cls-1" d="M289.45,36.57h-.2V30.79H274V85.09h16.24V55.25c0-8.22,5.28-9.78,12.82-10V28.93c-9.39,0-12.23,5-13.6,7.63Z"/><path class="cls-1" d="M200.74,33.63c-2.93-2.54-8.71-4.7-13.89-4.7-9.69,0-13.11,5-14.77,7.63h-.2V30.79H156.72V85.09H173V55.54c0-3.33,0-11.35,9.29-11.35,8.51,0,8.51,7.44,8.51,11.25V85.09H207V51.14c0-10.66-3.33-15-6.26-17.51Z"/><path class="cls-1" d="M518.45,51.88c.68-3.23,3.91-9.29,12.33-9.29s11.64,6.07,12.33,9.29Zm40.89,6.65c0-16.53-12.13-29.64-28.67-29.64s-28.47,14-28.47,29.15A28.81,28.81,0,0,0,531,86.81a26.41,26.41,0,0,0,15.46-4.89A31.85,31.85,0,0,0,557.48,68H540.85c-2.25,2.84-4.89,5.09-9.88,5.09-6.36,0-11.74-3.82-12.72-10.27h40.7a22.23,22.23,0,0,0,.39-4.3Z"/><path class="cls-1" d="M491,33.6c-2.94-2.55-8.72-4.7-13.91-4.7-9.7,0-13.12,5-14.79,7.64h-.2V30.84H446.9V85.12h16.26V55.54c0-3.33,0-11.36,9.3-11.36,8.52,0,8.52,7.44,8.52,11.26V85.12h16.26v-34c0-10.68-3.33-15-6.27-17.53Z"/><polygon class="cls-1" points="375.57 16.74 359.33 26.11 359.33 30.79 351.31 30.79 351.31 43.12 359.33 43.12 359.33 85.09 375.57 85.09 375.57 43.12 383.39 43.12 383.39 30.79 375.57 30.79 375.57 16.74 375.57 16.74"/><path class="cls-1" d="M330,51.38c-4.29-1.27-8.29-2.93-8.29-5.86,0-1.46,1.17-3.61,4.59-3.61,4.78,0,5,2.93,5.07,4.1h15.91c-1.37-14.25-13.66-17.08-20.79-17.08-11.22,0-21,7.12-21,17.86,0,7.32,5.85,11.91,12.88,14.15,10.34,4,14.35,4.49,14.35,8.69,0,2.64-2.93,4.2-5.66,4.2-.68,0-5.46,0-6.15-5h-16.1c1.46,14.25,13.86,18,22.06,18,12,0,22.05-7,22.05-18.44,0-11.71-9.76-14.44-18.93-17Z"/><path class="cls-1" d="M412.71,71.57c-7.05,0-13-5.78-13-13.71s6-13.71,13-13.71,13,5.78,13,13.71-6,13.71-13,13.71Zm0-42.61c-19.79,0-29.29,15.57-29.29,28.89s9.5,28.89,29.29,28.89S442,71.18,442,57.86,432.49,29,412.71,29Z"/><path class="cls-1" d="M228.16,51.88c.68-3.23,3.91-9.29,12.33-9.29s11.64,6.07,12.33,9.29ZM269,58.54c0-16.53-12.13-29.64-28.66-29.64s-28.47,14-28.47,29.15a28.81,28.81,0,0,0,28.76,28.76,26.39,26.39,0,0,0,15.46-4.89A31.85,31.85,0,0,0,267.19,68H250.56c-2.25,2.84-4.89,5.09-9.88,5.09-6.36,0-11.74-3.82-12.72-10.27h40.7a22.26,22.26,0,0,0,.39-4.3Z"/><path class="cls-1" d="M88.62,71.59c-7,0-13-5.77-13-13.7s6-13.7,13-13.7,13,5.77,13,13.7-6,13.7-13,13.7Zm0-42.56c-8.69,0-15.39,3-20.17,7.51V0L0,39.59v68.85L40.23,85.18A28.49,28.49,0,0,1,20,57.6,28.27,28.27,0,0,1,48.39,29a29.49,29.49,0,0,1,20.06,7.6,28.23,28.23,0,0,1,8.57,15H60.72C58.87,47.89,55.67,44,49,44c-7.67-.39-12.81,5.92-12.81,13.68S41.31,71.38,49,71.38c6.7,0,9.9-3.88,11.64-7.18H77A29.19,29.19,0,0,1,68.25,79c4.8,4.61,11.56,7.71,20.38,7.71,19.76,0,29.25-15.55,29.25-28.86S108.39,29,88.62,29Z"/></g></g></svg>