<svg xmlns="http://www.w3.org/2000/svg" width="959.78" height="158.01" viewBox="0 0 959.78 158.01"><defs><style>.cls-1{fill:#fff;}.cls-2{fill:#282828;}.cls-3{fill:#7db542;}.cls-4{fill:#009ed8;}.cls-5{fill:#8fc200;}.cls-6{fill:#de0f42;}.cls-7{fill:#9c0;}</style></defs><title>hrtech-logo</title><g id="Layer_2" data-name="Layer 2"><g id="Layer_7" data-name="Layer 7"><path class="cls-1" d="M480,83V51.79H450.77V83H426.05V1.34h24.71v28.9H480V1.34h24.72V83Z" transform="translate(-1.15)"/><path class="cls-1" d="M203.25,83V22.9H181.34V1.35h68.44V22.9H228V83Z" transform="translate(-1.15)"/><path class="cls-1" d="M261.65,83V1.35h62V22.9H286.38V31h36.36V52.52H286.38v8.94H323.6V83Z" transform="translate(-1.15)"/><path class="cls-1" d="M333.26,42.24C333.26,17,352.61,0,378.19,0c21.43,0,32.2,12.49,37.1,23.75L394,33.67c-2.08-6.37-8.45-11.88-15.79-11.88-11.88,0-19.84,9.06-19.84,20.45s8,20.45,19.84,20.45c7.35,0,13.71-5.51,15.79-11.88l21.3,9.8c-4.78,10.9-15.67,23.87-37.1,23.87C352.61,84.48,333.26,67.34,333.26,42.24Z" transform="translate(-1.15)"/><path class="cls-1" d="M623.65,42.24C623.65,17.14,643.12,0,668.34,0S713,17.14,713,42.24s-19.47,42.24-44.69,42.24S623.65,67.34,623.65,42.24Zm64.28,0c0-11.38-7.71-20.45-19.59-20.45s-19.59,9.06-19.59,20.45,7.71,20.45,19.59,20.45S687.93,53.62,687.93,42.24Z" transform="translate(-1.15)"/><path class="cls-1" d="M769.83,83,758.56,57.3h-8.94V83H724.89V1.35h43.59c19.1,0,29.38,12.73,29.38,28,0,14.08-8.2,21.55-14.69,24.73L798,83Zm2.94-53.75c0-4.41-3.92-6.37-8.08-6.37H749.63V35.75h15.06C768.85,35.75,772.77,33.79,772.77,29.26Z" transform="translate(-1.15)"/><path class="cls-1" d="M811,83V1.35h24.73V61.46h31V83Z" transform="translate(-1.15)"/><path class="cls-1" d="M879.63,83V1.35h36.49c25.71,0,44.81,14.69,44.81,40.77S941.83,83,916.24,83Zm56.2-40.89c0-11-6.37-19.22-19.59-19.22H904.36V61.46h11.75C928.48,61.46,935.83,52.4,935.83,42.12Z" transform="translate(-1.15)"/><g id="_Group_" data-name="&lt;Group&gt;"><g id="_Group_2" data-name="&lt;Group&gt;"><path id="_Compound_Path_" data-name="&lt;Compound Path&gt;" class="cls-1" d="M166.21,74.26l-4.49-8.76h1.76l-2.18-4.27h-.88L157,54.64c6.56-3.21,14.85-10.76,14.85-25,0-15.47-10.39-28.34-29.7-28.34H98.12V61.23H97V65.5h2.4v8.76h-1.3V83h25V74.6h0V65.28h-3.59v-4h2.6V57.86h10l1.5,3.43h0l1.7,3.89h0l4.08,9.32h.33L143.53,83H172l-4.49-8.76ZM123.11,36.08v-13h15.23c4.21,0,8.16,2,8.16,6.43s-4,6.56-8.16,6.56Z" transform="translate(-1.15)"/><polygon id="_Path_" data-name="&lt;Path&gt;" class="cls-1" points="82.07 61.3 83.59 61.3 83.59 1.3 58.59 1.3 58.59 30.52 29.02 30.52 29.02 1.3 4.01 1.3 4.01 61.23 0 61.23 0 65.5 8.43 65.5 8.43 74.26 4.01 74.26 4.01 83.03 29.02 83.03 29.02 74.51 32.57 74.51 32.57 65.19 25.79 65.19 25.79 61.3 29.02 61.3 29.02 52.29 58.59 52.29 58.59 61.23 56.29 61.23 56.29 65.5 61.13 65.5 61.13 74.26 58.59 74.26 58.59 83.03 83.59 83.03 83.59 74.51 85.27 74.51 85.27 65.19 82.07 65.19 82.07 61.3"/></g></g><path class="cls-2" d="M574.55,42.27" transform="translate(-1.15)"/><path class="cls-3" d="M480,51.8" transform="translate(-1.15)"/><polyline class="cls-4" points="565.71 42.27 578.07 83.02 578.07 83.02 553.34 83.02"/><polyline class="cls-5" points="540.77 42.09 528.4 1.34 528.4 1.34 553.13 1.34"/><polyline class="cls-6" points="590.64 42.09 578.28 1.34 578.28 1.34 603.01 1.34"/><path class="cls-7" d="M5.39,117.72h5.55v34.79H28.67v4.83H5.39Z" transform="translate(-1.15)"/><path class="cls-7" d="M51.73,117.05A20,20,0,0,1,72,137.25C72,148.92,63.18,158,51.73,158s-20.37-9.09-20.37-20.76A20,20,0,0,1,51.73,117.05Zm0,35.85c8.08,0,14.59-6.73,14.59-15.65,0-8.64-6.51-15.15-14.59-15.15s-14.64,6.51-14.64,15.15C37.09,146.17,43.65,152.9,51.73,152.9Z" transform="translate(-1.15)"/><path class="cls-7" d="M80.12,117.72h5.5l17.62,25.75c1.46,2.13,3.31,5.72,3.31,5.72h.11s-.39-3.53-.39-5.72V117.72h5.55v39.61h-5.44L88.7,131.64c-1.46-2.19-3.31-5.78-3.31-5.78h-.11s.39,3.53.39,5.78v25.7H80.12Z" transform="translate(-1.15)"/><path class="cls-7" d="M122.59,117.72h13.13c12.12,0,20.09,7.24,20.09,19.75s-8,19.86-20.09,19.86H122.59Zm12.74,34.79c8.92,0,14.76-5.27,14.76-15s-5.89-14.92-14.76-14.92h-7.18v30Z" transform="translate(-1.15)"/><path class="cls-7" d="M181.78,117.05a20,20,0,0,1,20.31,20.2c0,11.67-8.87,20.76-20.31,20.76s-20.37-9.09-20.37-20.76A20,20,0,0,1,181.78,117.05Zm0,35.85c8.08,0,14.59-6.73,14.59-15.65,0-8.64-6.51-15.15-14.59-15.15s-14.64,6.51-14.64,15.15C167.14,146.17,173.7,152.9,181.78,152.9Z" transform="translate(-1.15)"/><path class="cls-7" d="M210.17,117.72h5.5l17.62,25.75c1.46,2.13,3.31,5.72,3.31,5.72h.11s-.39-3.53-.39-5.72V117.72h5.55v39.61h-5.44l-17.67-25.7c-1.46-2.19-3.31-5.78-3.31-5.78h-.11s.39,3.53.39,5.78v25.7h-5.55Z" transform="translate(-1.15)"/><path class="cls-1" d="M264.76,154.31c0-14.14,19.41-16.16,19.41-25.47,0-3.93-3-6.56-7.13-6.56-5.22,0-8,5-8,5l-4.1-2.75a14.22,14.22,0,0,1,12.51-7.52c7.29,0,12.51,4.54,12.51,11.39,0,13-18.91,15-19,24.07h19.64v4.83H265A19.68,19.68,0,0,1,264.76,154.31Z" transform="translate(-1.15)"/><path class="cls-1" d="M296.91,152.51h8.75V126.93c0-1.23.06-2.47.06-2.47h-.11a9.81,9.81,0,0,1-1.91,2.3L300,130.4l-3.37-3.48,9.48-9.2h4.94v34.79h8.64v4.83H296.91Z" transform="translate(-1.15)"/><path class="cls-1" d="M327.32,135.4H343.7v4.83H327.32Z" transform="translate(-1.15)"/><path class="cls-1" d="M352.9,154.31c0-14.14,19.41-16.16,19.41-25.47,0-3.93-3-6.56-7.13-6.56-5.22,0-8,5-8,5l-4.1-2.75a14.22,14.22,0,0,1,12.51-7.52c7.29,0,12.51,4.54,12.51,11.39,0,13-18.91,15-19,24.07h19.64v4.83H353.19A19.68,19.68,0,0,1,352.9,154.31Z" transform="translate(-1.15)"/><path class="cls-1" d="M385,154.31c0-14.14,19.41-16.16,19.41-25.47,0-3.93-3-6.56-7.13-6.56-5.22,0-8,5-8,5l-4.1-2.75a14.22,14.22,0,0,1,12.51-7.52c7.29,0,12.51,4.54,12.51,11.39,0,13-18.91,15-19,24.07h19.64v4.83H385.28A19.68,19.68,0,0,1,385,154.31Z" transform="translate(-1.15)"/><path class="cls-1" d="M435.77,117.72h5.83l9.09,21.43c.9,2.19,2,5.33,2,5.33h.11s1.07-3.14,2-5.33l9.09-21.43h5.83l3.2,39.61h-5.5l-2-25c-.17-2.41-.06-5.83-.06-5.83h-.11s-1.18,3.65-2.13,5.83l-7.91,17.84h-4.94l-7.85-17.84c-.9-2.13-2.13-5.95-2.13-5.95h-.11s.06,3.54-.11,5.95l-1.91,25h-5.55Z" transform="translate(-1.15)"/><path class="cls-1" d="M502,145.95H487.11l-3.93,11.39h-5.72l14.25-39.61h5.83l14.25,39.61H506Zm-7.46-22.78s-.9,3.59-1.57,5.61l-4.43,12.57h12l-4.38-12.57c-.67-2-1.51-5.61-1.51-5.61Z" transform="translate(-1.15)"/><path class="cls-1" d="M517.63,117.72h12.12c4.15,0,5.89.34,7.41.9,4,1.52,6.68,5.5,6.68,10.72,0,5-2.81,9.31-7.12,10.72v.11a11.54,11.54,0,0,1,1.18,1.8l8.42,15.37H540l-8.36-15.77h-8.47v15.77h-5.55Zm13.52,19c4.32,0,7-2.75,7-7.18,0-2.92-1.12-5-3.14-6.12-1.07-.56-2.36-.9-5.44-.9h-6.4v14.2Z" transform="translate(-1.15)"/><path class="cls-1" d="M571,117.05c9.54,0,14.42,5.22,14.42,5.22l-2.75,4.15a18.07,18.07,0,0,0-11.45-4.32c-8.86,0-14.64,6.73-14.64,15.15s5.89,15.65,14.7,15.65a17.92,17.92,0,0,0,12.23-5.16l3,4A21.24,21.24,0,0,1,571.16,158c-11.89,0-20.25-9.09-20.25-20.7S559.54,117.05,571,117.05Z" transform="translate(-1.15)"/><path class="cls-1" d="M594.1,117.72h5.55v17.39h20.54V117.72h5.55v39.61h-5.55V139.94H599.66v17.39H594.1Z" transform="translate(-1.15)"/><path class="cls-1" d="M648.64,154.31c0-14.14,19.41-16.16,19.41-25.47,0-3.93-3-6.56-7.13-6.56-5.22,0-8,5-8,5l-4.1-2.75a14.22,14.22,0,0,1,12.51-7.52c7.29,0,12.51,4.54,12.51,11.39,0,13-18.91,15-19,24.07h19.64v4.83H648.92A19.68,19.68,0,0,1,648.64,154.31Z" transform="translate(-1.15)"/><path class="cls-1" d="M681.18,137.47c0-11.39,3.42-20.42,14-20.42s14,9,14,20.42-3.42,20.53-14,20.53S681.18,148.92,681.18,137.47Zm22.33,0c0-8.58-1.85-15.32-8.36-15.32s-8.3,6.73-8.3,15.32,1.85,15.43,8.3,15.43S703.51,146.11,703.51,137.47Z" transform="translate(-1.15)"/><path class="cls-1" d="M715.85,152.51h8.75V126.93c0-1.23.06-2.47.06-2.47h-.11a9.82,9.82,0,0,1-1.91,2.3l-3.7,3.65-3.37-3.48,9.48-9.2H730v34.79h8.64v4.83H715.85Z" transform="translate(-1.15)"/><path class="cls-1" d="M760.4,126.14a20.33,20.33,0,0,1,2.3-3.65v-.11a18,18,0,0,1-2.92.17H742.11v-4.83h26.48v3.82l-17.9,35.8H745Z" transform="translate(-1.15)"/></g></g></svg>