<svg xmlns="http://www.w3.org/2000/svg" width="313.74" height="146.19" viewBox="0 0 313.74 146.19"><defs><style>.cls-1{fill:#fff;}</style></defs><title>oracle-full</title><g id="Layer_2" data-name="Layer 2"><g id="Layer_1-2" data-name="Layer 1"><path class="cls-1" d="M134.39,25.07H154L143.6,8.38l-19,30.14-8.68,0L139.09,2.37a5.49,5.49,0,0,1,9-.08l23.18,36.25-8.64,0-4.06-6.74H138.71l-4.32-6.72"/><path class="cls-1" d="M224.22,31.78V.38h-7.35V34.9a3.64,3.64,0,0,0,1.06,2.52,3.78,3.78,0,0,0,2.69,1.11h33.42l4.35-6.74H224.22"/><path class="cls-1" d="M102.82,26.17a12.9,12.9,0,0,0,0-25.81H70.68V38.52H78V7.11h24.27a6.17,6.17,0,0,1,0,12.34H81.63l21.91,19.08h10.65L99.45,26.17h3.36"/><path class="cls-1" d="M47.23,31.82a12.36,12.36,0,0,0,0-24.71H26a12.36,12.36,0,0,0,0,24.71H47.23m-21.69,6.7a19.07,19.07,0,1,1,0-38.14h22.2a19.08,19.08,0,0,1,0,38.16H25.54"/><path class="cls-1" d="M186.58,38.52a19.08,19.08,0,1,1,0-38.15h26.37l-4.34,6.74H187.06a12.36,12.36,0,0,0,0,24.71h26.45l-4.28,6.7H186.58"/><path class="cls-1" d="M276.33,31.82a12.36,12.36,0,0,1-11.89-9H295.8l4.32-6.71H264.44a12.36,12.36,0,0,1,11.89-9h21.53L302.16.38H275.85a19.07,19.07,0,1,0,0,38.14h22.62l4.33-6.7H276.33"/><path class="cls-1" d="M309.42,4.08a.87.87,0,0,0,.78-.3.48.48,0,0,0,.12-.41.72.72,0,0,0-.34-.6,2.47,2.47,0,0,0-.93-.1h-.22V4.08h.59m-.37-2.16a4.43,4.43,0,0,1,1.3.12,1.39,1.39,0,0,1,.91,1.34c0,.07,0,.22-.05.4a1.34,1.34,0,0,1-.61.83s-.08.06-.19.1l1.12,2h-1.07l-1-1.83h-.64V6.69h-1V1.92h1.21m.42,6.81a4.25,4.25,0,0,0,4.27-4.27,4.27,4.27,0,1,0-4.27,4.27m-3.39-4.28a3.39,3.39,0,1,1,3.39,3.35,3.37,3.37,0,0,1-3.39-3.35"/><polygon class="cls-1" points="0.03 60.01 308.35 60.01 308.35 57.9 0.03 57.9 0.03 60.01 0.03 60.01"/><polygon class="cls-1" points="0 79.4 5.33 79.4 5.33 89.33 14.71 89.33 14.71 79.4 20.11 79.4 20.11 104.25 14.78 104.25 14.78 93.35 5.33 93.35 5.33 104.25 0 104.25 0 79.4 0 79.4"/><path class="cls-1" d="M32.62,79.47V94.59c0,2.72.21,6.12,5.4,6.12.86,0,3.44,0,4.81-2.17.52-.76.79-1.72.79-4.23V79.47h5.19V95c0,7.39-5.88,9.76-10.9,9.76-2.48,0-7-.55-9.35-4.3-1.2-1.89-1.27-3.82-1.27-6.12V79.47Z"/><polygon class="cls-1" points="55.89 79.4 64.59 79.4 69.84 97.48 75.52 79.4 83.97 79.4 83.97 104.25 78.68 104.25 78.68 82.94 71.91 104.25 67.51 104.25 60.87 82.94 60.87 104.25 55.89 104.25 55.89 79.4 55.89 79.4"/><path class="cls-1" d="M104.35,94.87l-3.44-10.59L97.24,94.87Zm-.14-15.47,8.63,24.85h-5.36l-1.79-5.36H95.86L94,104.25H88.92l9-24.85Z"/><polygon class="cls-1" points="118.17 79.4 125.87 79.4 135.19 98.96 135.19 79.4 140.14 79.4 140.14 104.25 132.81 104.25 123.19 83.63 123.19 104.25 118.17 104.25 118.17 79.4 118.17 79.4"/><path class="cls-1" d="M171.11,87.51c-.1-.86-.41-4.37-4-4.37-4,0-5.6,4.13-5.6,9.25,0,1.48,0,8.52,5.19,8.52,2.23,0,4.37-1.41,4.47-4.71h5.6a8.5,8.5,0,0,1-2.23,5.84,9.75,9.75,0,0,1-7.25,2.78c-8.56,0-11.34-6.32-11.34-12.48,0-7.87,4.4-13.1,11.38-13.1,5.43,0,9.25,3.3,9.25,8.25Z"/><path class="cls-1" d="M195.41,94.87,192,84.28l-3.68,10.59Zm-.14-15.47,8.63,24.85h-5.36l-1.79-5.36h-9.83l-1.86,5.36H180l9-24.85Z"/><path class="cls-1" d="M214.35,90.64h2.13c1.72,0,4.91,0,4.91-3.78,0-3.37-2.85-3.37-4.37-3.37h-2.68v7.15Zm-5.26-11.17h7.66c3.58,0,6.57.24,8.63,2.72a7.07,7.07,0,0,1,1.51,4.64,7.68,7.68,0,0,1-3.16,6.6c-1.82,1.17-4.33,1.17-5.64,1.17h-3.61v9.66h-5.4V79.47Z"/><polygon class="cls-1" points="232.15 79.33 237.48 79.33 237.48 104.25 232.15 104.25 232.15 79.33 232.15 79.33"/><polygon class="cls-1" points="249.82 83.52 242.43 83.52 242.43 79.4 262.57 79.4 262.57 83.52 255.18 83.52 255.18 104.25 249.82 104.25 249.82 83.52 249.82 83.52"/><path class="cls-1" d="M278.55,94.87l-3.44-10.59-3.68,10.59Zm-.14-15.47L287,104.25h-5.36l-1.79-5.36h-9.83l-1.86,5.36h-5.09l9-24.85Z"/><polygon class="cls-1" points="292.3 79.43 297.73 79.43 297.73 100.02 308.39 100.02 308.39 104.25 292.3 104.25 292.3 79.43 292.3 79.43"/><polygon class="cls-1" points="16.41 120.78 25.11 120.78 30.37 138.87 36.04 120.78 44.49 120.78 44.49 145.64 39.2 145.64 39.2 124.33 32.43 145.64 28.03 145.64 21.4 124.33 21.4 145.64 16.41 145.64 16.41 120.78 16.41 120.78"/><path class="cls-1" d="M64.88,136.25l-3.44-10.59-3.68,10.59Zm-.14-15.47,8.63,24.85H68l-1.79-5.36H56.39l-1.86,5.36H49.44l9-24.85Z"/><polygon class="cls-1" points="78.69 120.78 86.39 120.78 95.71 140.34 95.71 120.78 100.66 120.78 100.66 145.64 93.34 145.64 83.71 125.01 83.71 145.64 78.69 145.64 78.69 120.78 78.69 120.78"/><path class="cls-1" d="M121,136.25l-3.44-10.59-3.68,10.59Zm-.14-15.47,8.63,24.85h-5.36l-1.79-5.36h-9.83l-1.86,5.36h-5.09l9-24.85Z"/><path class="cls-1" d="M150.64,128.42a4.7,4.7,0,0,0-.69-2.51,4.76,4.76,0,0,0-4.16-1.92c-6,0-7.25,5.64-7.25,9.45,0,1.68.24,4.71,2.06,6.67,1.24,1.37,2.89,2.13,5.84,2.13a12,12,0,0,0,4.06-.48v-5.22h-4.81V132.4h10.14v12.41a25.6,25.6,0,0,1-9.08,1.37c-5.67,0-8.59-1.37-10.55-3.3-2.78-2.72-3.3-6.67-3.3-9.28,0-8.8,5.5-13.51,13-13.51,3.2,0,6.5.89,8.46,3.13a7.56,7.56,0,0,1,1.79,5.19Z"/><polygon class="cls-1" points="163.04 120.78 179.68 120.78 179.68 124.84 168.37 124.84 168.37 130.75 178.96 130.75 178.96 134.81 168.37 134.81 168.37 141.51 180.06 141.51 180.06 145.64 163.04 145.64 163.04 120.78 163.04 120.78"/><polygon class="cls-1" points="186.07 120.78 194.77 120.78 200.03 138.87 205.7 120.78 214.16 120.78 214.16 145.64 208.86 145.64 208.86 124.33 202.09 145.64 197.69 145.64 191.06 124.33 191.06 145.64 186.07 145.64 186.07 120.78 186.07 120.78"/><polygon class="cls-1" points="221.37 120.78 238.01 120.78 238.01 124.84 226.7 124.84 226.7 130.75 237.29 130.75 237.29 134.81 226.7 134.81 226.7 141.51 238.39 141.51 238.39 145.64 221.37 145.64 221.37 120.78 221.37 120.78"/><polygon class="cls-1" points="244.71 120.78 252.41 120.78 261.73 140.34 261.73 120.78 266.68 120.78 266.68 145.64 259.36 145.64 249.73 125.01 249.73 145.64 244.71 145.64 244.71 120.78 244.71 120.78"/><polygon class="cls-1" points="279.22 124.91 271.83 124.91 271.83 120.78 291.98 120.78 291.98 124.91 284.58 124.91 284.58 145.64 279.22 145.64 279.22 124.91 279.22 124.91"/></g></g></svg>