<svg xmlns="http://www.w3.org/2000/svg" width="438.08" height="152.14" viewBox="0 0 438.08 152.14"><defs><style>.cls-1,.cls-2{fill:#fff;}.cls-2{fill-rule:evenodd;}</style></defs><title>sapsuccessfactors-v2</title><g id="Layer_2" data-name="Layer 2"><g id="Layer_1-2" data-name="Layer 1"><path class="cls-1" d="M403.64,5.61c-6.31,0-10.54,4.42-10.54,11,0,7.17,6.9,14.05,14.89,22l4.8,4.79,4.79-4.79c8-8,14.89-14.83,14.89-22,0-6.57-4.23-11-10.54-11a9.87,9.87,0,0,0-7.13,3.06l-2,2.08-2-2.08a9.87,9.87,0,0,0-7.13-3.06m9.14,45.72L404,42.58c-8.88-8.84-16.55-16.47-16.55-26S394.28,0,403.64,0a15.34,15.34,0,0,1,9.14,3,15.34,15.34,0,0,1,9.14-3c9.36,0,16.16,7,16.16,16.6s-7.67,17.15-16.55,26l-8.76,8.75Z"/><path class="cls-1" d="M360.35,37.12l2.46-3.46a11.4,11.4,0,0,0,7.12,2.65c1.92,0,3.27-.66,3.27-2s-1.08-2-3.89-2.46c-3.88-.69-8-1.62-8-6.42,0-4.11,3.38-6.5,8-6.5,4.19,0,6.72,1.08,9,2.88l-2.42,3.5a11,11,0,0,0-6-2.23c-1.76,0-2.76.69-2.76,1.81s1.11,1.73,3.64,2.19c4,.69,8.31,1.61,8.31,6.27,0,5-4.31,6.92-9,6.92a14.14,14.14,0,0,1-9.58-3.15Zm-14.22,2.73V19.36h6.19v3.42h0a7.77,7.77,0,0,1,6.92-3.85h.19l-.08,5.5c-.23,0-1.23-.12-1.62-.12a6.84,6.84,0,0,0-5.46,2.81V39.85Zm-9.77-10.19c0-3.42-1.19-6.19-4.26-6.19s-4.31,2.5-4.31,6.19c0,3.42,1.15,6.27,4.31,6.27,2.92,0,4.26-2.54,4.26-6.27Zm-14.76,0c0-8,5.5-10.69,10.5-10.69s10.45,2.65,10.45,10.69-5.5,10.65-10.45,10.65-10.5-2.69-10.5-10.65Zm-13.26,4.46V23.86h-3.42v-4.5h3.42v-7h6.15v7h5.27v4.5h-5.27v8.88c0,2.19.62,2.88,2.85,2.88a7.56,7.56,0,0,0,2-.23v4.42a29.87,29.87,0,0,1-4.08.31c-6.07,0-7-2.19-7-6Zm-24.1-4.46c0-8.19,5.8-10.69,10.34-10.69,5.58,0,7.73,3,8.92,6.27l-5.19,1.73c-.81-2.62-2-3.46-3.8-3.46-2.5,0-4.08,2.12-4.08,6.19,0,3.65,1.16,6.27,4,6.27,1.65,0,3.15-.89,4-3.65L303.57,34a9.25,9.25,0,0,1-9.27,6.23c-4.8,0-10.07-2.69-10.07-10.65Zm-9.42,4.11V29.93c-4.89.5-7,1.73-7,3.61,0,1.31.92,2,2.26,2a6.35,6.35,0,0,0,4.7-1.77Zm-13,.88c0-4.73,4-7.34,13-8.08V26c0-1.5-.77-2.46-2.77-2.46a10.91,10.91,0,0,0-6.73,2.54l-2.62-3.54a14.38,14.38,0,0,1,10.23-3.65c5.62,0,7.93,2.77,7.93,8v7.88a14,14,0,0,0,.57,5h-6.15a9.77,9.77,0,0,1-.46-3,9.07,9.07,0,0,1-7.16,3.31c-3.14,0-5.84-2-5.84-5.54Zm-17.39,5.23V11.4h18.8v5.23H250.69v6.92h8.92v5h-8.92V39.85Zm-22.37-2.73,2.46-3.46a11.35,11.35,0,0,0,7.11,2.65c1.93,0,3.27-.66,3.27-2s-1.08-2-3.88-2.46c-3.89-.69-8-1.62-8-6.42,0-4.11,3.38-6.5,8-6.5,4.2,0,6.73,1.08,9,2.88l-2.42,3.5a11,11,0,0,0-6-2.23c-1.78,0-2.77.69-2.77,1.81s1.12,1.73,3.65,2.19c4,.69,8.3,1.61,8.3,6.27,0,5-4.3,6.92-9,6.92a14.11,14.11,0,0,1-9.57-3.15Zm-20.55,0L204,33.66a11.35,11.35,0,0,0,7.11,2.65c1.93,0,3.27-.66,3.27-2s-1.08-2-3.88-2.46c-3.89-.69-8-1.62-8-6.42,0-4.11,3.38-6.5,8-6.5,4.2,0,6.73,1.08,9,2.88L217,25.32a11,11,0,0,0-6-2.23c-1.77,0-2.77.69-2.77,1.81s1.12,1.73,3.65,2.19c4,.69,8.3,1.61,8.3,6.27,0,5-4.3,6.92-9,6.92a14.11,14.11,0,0,1-9.57-3.15Zm-7.23-9.5c-.3-2.88-1.62-4.27-3.92-4.27-1.93,0-3.58,1.27-4,4.27Zm-14.18,2c0-8,6.08-10.69,10.3-10.69s9.42,2.12,9.42,11.42v.92H186.25c.3,3.38,2.19,4.69,4.76,4.69a9.41,9.41,0,0,0,6.08-2.46l2.39,3.69a13.24,13.24,0,0,1-8.92,3.08c-5.34,0-10.45-2.73-10.45-10.65Zm-20.73,0c0-8.17,5.79-10.66,10.31-10.66,5.56,0,7.71,3,8.9,6.25L173.4,27c-.81-2.61-2-3.45-3.79-3.45-2.49,0-4.07,2.11-4.07,6.17,0,3.64,1.15,6.25,4,6.25,1.65,0,3.14-.88,4-3.64l5.1,1.76a9.22,9.22,0,0,1-9.24,6.21c-4.79,0-10-2.68-10-10.62Zm-21.35,0c0-8.19,5.8-10.69,10.34-10.69,5.58,0,7.73,3,8.92,6.27l-5.19,1.73c-.81-2.62-2-3.46-3.81-3.46-2.5,0-4.08,2.12-4.08,6.19,0,3.65,1.16,6.27,4,6.27,1.65,0,3.16-.89,4-3.65L157.35,34a9.25,9.25,0,0,1-9.26,6.23c-4.81,0-10.08-2.69-10.08-10.65Zm-22.56,4.69v-15h6.19V32.51c0,1.85.69,2.85,2.42,2.85a7,7,0,0,0,4.46-2.08V19.36h6.19V39.85h-6.19V36.66a8.86,8.86,0,0,1-7.07,3.61c-3.5,0-6-1.73-6-6Zm-26.52-.92,4.73-2.81a8.43,8.43,0,0,0,7.68,4.84c2.88,0,5-1.08,5-3.27s-2-3.08-5.77-4.11c-5.07-1.42-10.38-2.73-10.38-8.69,0-5.31,4.15-8.5,10.27-8.5a12.8,12.8,0,0,1,11.31,5.84L107.39,20a8.48,8.48,0,0,0-7-4c-2.65,0-4.11,1.15-4.11,2.85,0,2.27,2.11,3.08,5.84,4.11,5,1.35,10.3,2.92,10.3,8.81,0,4.58-3.46,8.65-11.37,8.65-6.15,0-10-2.92-12.12-7Zm-28.8-8.5H64.4c3.88,0,5.34-1.5,5.34-4.23s-1.42-4.15-5.34-4.15H60.13v8.38Zm-6.24,15V11.4H64.25c6.07,0,11.61,1.62,11.61,9.11,0,7.65-6,9.23-11.69,9.23h-4V39.85ZM34.13,29h6.7l-3.27-9.69h-.08L34.13,29Zm-9.5,10.88L34.72,11.28h6L50.75,39.85H44.41l-2.12-6.34H32.6l-2.2,6.34ZM0,33.39l4.73-2.81a8.43,8.43,0,0,0,7.68,4.84c2.88,0,5-1.08,5-3.27s-2-3.08-5.77-4.11C6.54,26.62,1.23,25.32,1.23,19.36c0-5.31,4.15-8.5,10.27-8.5A12.8,12.8,0,0,1,22.81,16.7L18.46,20a8.48,8.48,0,0,0-7-4c-2.65,0-4.11,1.15-4.11,2.85,0,2.27,2.11,3.08,5.84,4.11,5,1.35,10.3,2.92,10.3,8.81,0,4.58-3.46,8.65-11.37,8.65-6.15,0-10-2.92-12.12-7Z"/><path class="cls-2" d="M93.29,123H88.42v14.47H66.1l-2.21-6.92A25.29,25.29,0,0,1,56,131.76a25,25,0,0,1-8-1.27l-2.3,7H32l1.51-4c-.18.16-.36.32-.55.48a20.58,20.58,0,0,1-13,4.35H19.2a34.81,34.81,0,0,1-17.06-4.54l4.65-9.25c5,3,8.21,3.65,12.48,3.56,2.21,0,3.82-.45,4.86-1.52a3.55,3.55,0,0,0,1-2.35c0-2.4-3.38-3.53-7.56-4.83a35.21,35.21,0,0,1-10.25-4.69,11.8,11.8,0,0,1-5.18-10.52,12.72,12.72,0,0,1,3.61-8.79c3.31-3.43,8.66-5.5,15.07-5.5h0a40.75,40.75,0,0,1,17.07,4L32.69,103c-5.32-2.57-8-2.81-11-3-4.51-.24-6.79,1.37-6.82,3.11,0,2.12,4.27,4,8.33,5.34,6.15,2,14,4.57,15.16,12.12l11.24-30H62.62l13.17,35.83V90.63H90.86c14.4,0,21.17,5.14,21.17,16.32,0,10-7,16-18.74,16ZM0,76.4v75.74H77.38L153.11,76.4Zm56,29L51.2,120.46a13.77,13.77,0,0,0,4.83.84,14.16,14.16,0,0,0,4.73-.8l-4.69-15.11Zm35.77-4.89H88.42v12.15h3.32c4.43,0,8-1.47,8-6.15,0-4.52-3.53-6-8-6Z"/><path class="cls-1" d="M98.68,146.81v-1.75h1.17c.59,0,1.22.12,1.22.83,0,.88-.64.92-1.36.92Zm0,.73h1l1.48,2.44h1l-1.62-2.49a1.47,1.47,0,0,0,1.48-1.56c0-1.1-.66-1.6-2-1.6H97.83V150h.85v-2.44Zm1,4.52a4.9,4.9,0,1,0-5-4.91,4.89,4.89,0,0,0,5,4.91Zm-4-4.91a4,4,0,1,1,4,4.1,4,4,0,0,1-4-4.1Z"/></g></g></svg>