<svg xmlns="http://www.w3.org/2000/svg" width="291.98" height="117.45" viewBox="0 0 291.98 117.45"><defs><style>.cls-1{fill:#fff;}</style></defs><title>workday</title><g id="Layer_2" data-name="Layer 2"><g id="Layer_2-2" data-name="Layer 2"><path class="cls-1" d="M84.44,53.92a73.78,73.78,0,0,1,135.75,0h0a4.64,4.64,0,0,0,9-1.58,4.58,4.58,0,0,0-.32-1.76h0a83.24,83.24,0,0,0-153.12,0,4.51,4.51,0,0,0-.33,1.78,4.64,4.64,0,0,0,9,1.58Z"/><path class="cls-1" d="M42.63,101.95a1.82,1.82,0,0,1-1.95,1.29H34.49c-1,0-1.52-.29-1.78-1.29L26.85,80.08a60.92,60.92,0,0,1-1.19-7.36,46.29,46.29,0,0,1-1.18,7.36l-5.85,21.87a1.76,1.76,0,0,1-2,1.29H10.4c-1,0-1.52-.29-1.78-1.29L.05,70.51a1.3,1.3,0,0,1,1.36-1.72h4a1.68,1.68,0,0,1,1.95,1.43l5.43,22.44a64.46,64.46,0,0,1,1,7.64c.42-2.36.76-5.14,1.44-7.57l6-22.58a1.89,1.89,0,0,1,2-1.36h4.91a2,2,0,0,1,2.12,1.43l6.11,22.51a58.6,58.6,0,0,1,1.36,7.57c.34-2.36.68-5.14,1.19-7.57l5-22.58a1.83,1.83,0,0,1,2-1.36h3.73a1.25,1.25,0,0,1,1.36,1.65l-8.48,31.51Z"/><path class="cls-1" d="M75.64,73c-5.85,0-9.07,4.21-9.07,12.79,0,8.79,3.22,13,9.07,13s9.07-4.25,9.07-13c0-8.58-3.22-12.79-9.07-12.79Zm.17,30.56c-9.83,0-16.28-6.76-16.28-17.77S66,68.21,75.8,68.21s16.12,6.65,16.12,17.58-6.27,17.77-16.12,17.77Z"/><path class="cls-1" d="M123.58,73.64a1.78,1.78,0,0,1-2.46,1.28,22.41,22.41,0,0,0-4.75-.78c-2.46,0-5.77,2.8-5.77,9v18.66a1.67,1.67,0,0,1-1.78,1.43h-3.23a1.67,1.67,0,0,1-1.78-1.43V70.22a1.62,1.62,0,0,1,1.78-1.43h2a1.74,1.74,0,0,1,1.78,1.08l1.19,3.86c2.38-3.36,5.6-5.52,9.5-5.52,2.71,0,4.84,1.08,4.41,2.51l-.85,2.93Z"/><path class="cls-1" d="M188.17,73a6.29,6.29,0,0,0-5.68,2.78c-1.19,1.86-2.13,4.93-2.13,10.15,0,9.15,2.38,12.9,7.72,12.9,5.51,0,8.31-4.17,8.31-12.75S193.33,73,188.17,73Zm12.89,30h-1.78c-1.27,0-2-.43-2.21-1.43l-.68-2.86c-2.45,3.5-5.51,4.86-9.92,4.86-8.74,0-13.31-6-13.31-17.54,0-7.08,1.19-10.58,4.07-13.86a12.77,12.77,0,0,1,9.5-3.87,10.69,10.69,0,0,1,9.5,5.08V53.87A1.62,1.62,0,0,1,198,52.44h3.05a1.62,1.62,0,0,1,1.78,1.43v47.63a1.67,1.67,0,0,1-1.78,1.43Z"/><path class="cls-1" d="M162.5,103.25h-5.17a2.51,2.51,0,0,1-2-1.22L142.24,85.45v16.37a1.68,1.68,0,0,1-1.79,1.43H137.4a1.67,1.67,0,0,1-1.78-1.43V54.08a1.62,1.62,0,0,1,1.78-1.43h3.05a1.62,1.62,0,0,1,1.79,1.43V84.81L155.7,69.88a2.58,2.58,0,0,1,2.2-1.07h4.58c1.19,0,1.61,1,.94,1.71L149.11,84.88l14.33,16.65c.6.71.26,1.72-.93,1.72Z"/><path class="cls-1" d="M252.77,70.22c-.35-.78.54-1.41,1.53-1.41h4a2.24,2.24,0,0,1,2.24,1.41L268.42,91a21.51,21.51,0,0,1,.89,3.6c.27-1.06.81-3.11,1.43-4.87l6.35-19.62a2,2,0,0,1,2.16-1.34h3.85c1,0,1.79.63,1.52,1.41L271.45,108a13.55,13.55,0,0,1-8.42,8.61l-1.88.7a2.06,2.06,0,0,1-2.33-.63l-1.25-2a1.55,1.55,0,0,1,.9-2l1.34-.5c3.35-1.22,5.81-4.87,6.87-9.54L252.77,70.22Z"/><path class="cls-1" d="M229.9,98.72c-5.86,0-8.39-4.08-8.39-12.89C221.51,77.24,224,73,229.9,73s8.62,4.22,8.62,12.81c0,8.8-2.76,12.89-8.62,12.89Zm.16-30.5c-9.85,0-15.61,6.67-15.61,17.61s5.91,17.63,15.11,17.63h0c4,0,6.5-1.37,9-4.88l.67,3c.25,1,.94,1.43,2.21,1.43h1.78a1.67,1.67,0,0,0,1.79-1.43l0-15.79h0c0-10.94-5.08-17.51-14.95-17.51Z"/><path class="cls-1" d="M286.69,98h.61a1.44,1.44,0,0,0,.8-.18.61.61,0,0,0,.26-.55.66.66,0,0,0-.27-.58,1.56,1.56,0,0,0-.85-.19h-.55V98Zm.76-2.28a3,3,0,0,1,1.64.37,1.24,1.24,0,0,1,.55,1.11,1.31,1.31,0,0,1-.29.86,1.54,1.54,0,0,1-.83.5l1.15,2.29h-1.39l-1-2.1h-.61v2.1h-1.25V95.72Zm-1.56-.92a3.51,3.51,0,0,0-1.22.81,3.84,3.84,0,0,0-.87,1.28,3.77,3.77,0,0,0-.3,1.48,3.83,3.83,0,0,0,.28,1.46,3.79,3.79,0,0,0,.83,1.23,4,4,0,0,0,1.26.87,3.71,3.71,0,0,0,1.48.3,3.88,3.88,0,0,0,1.45-.29,4,4,0,0,0,1.29-.84,3.74,3.74,0,0,0,.84-1.22,3.66,3.66,0,0,0,.3-1.44,4,4,0,0,0-.28-1.52,3.89,3.89,0,0,0-2.08-2.12,4,4,0,0,0-1.5-.29,3.71,3.71,0,0,0-1.47.29Zm3.26-.69a4.78,4.78,0,0,1,1.51,1,4.46,4.46,0,0,1,1,1.48,4.64,4.64,0,0,1,.34,1.77,4.43,4.43,0,0,1-.36,1.78,4.28,4.28,0,0,1-1,1.49,5,5,0,0,1-1.51,1,4.54,4.54,0,0,1-1.76.35,4.68,4.68,0,0,1-1.77-.36,4.9,4.9,0,0,1-1.51-1,4.55,4.55,0,0,1-1-1.48,4.49,4.49,0,0,1-.35-1.75,5,5,0,0,1,.17-1.24,4.91,4.91,0,0,1,.51-1.17,4.59,4.59,0,0,1,1.65-1.64,4.73,4.73,0,0,1,4.09-.23Z"/></g></g></svg>