<svg id="Layer_7" data-name="Layer 7" xmlns="http://www.w3.org/2000/svg" width="512" height="512" viewBox="0 0 512 512"><defs><style>.cls-1{fill:#d1d1d1;}</style></defs><title>adoption-icon</title><path class="cls-1" d="M450.84,244H414.3V146.56a49,49,0,0,0-48.82-48.82H268V61.2C268,27,241.2.25,207,.25S146.09,27,146.09,61.2V97.74H48.61A49,49,0,0,0-.21,146.56v92.61H36.33a65.82,65.82,0,0,1,0,131.65H-.21v92.61a49,49,0,0,0,48.82,48.82h92.61V475.71a65.82,65.82,0,1,1,131.65,0v36.54h92.61a49,49,0,0,0,48.82-48.82V365.95h36.54c34.16,0,60.95-26.79,60.95-60.95S485,244,450.84,244Zm0,0"/></svg>