<svg id="Layer_6" data-name="Layer 6" xmlns="http://www.w3.org/2000/svg" width="512" height="512" viewBox="0 0 512 512"><defs><style>.cls-1{fill:#d1d1d1;}</style></defs><title>communication-icon</title><path class="cls-1" d="M206.55,110.74C92.34,110.74-.26,181.9-.26,269.86c0,43,22.36,82.18,58.59,110.79-2.19,29.2-9.19,65-29.56,84.21,40.57,0,81.91-25.34,108.16-45.23A258.76,258.76,0,0,0,206.55,429c114.21,0,206.81-71.32,206.81-159.12,0-88-92.61-159.12-206.81-159.12Zm0,0"/><path class="cls-1" d="M481.59,285.21C499,262.06,509,235,509,206.13,509,118.18,416.35,47,302.14,47c-50.36,0-96.5,13.84-132.27,36.68a290.83,290.83,0,0,1,52.71-4.81c122.88,0,222.64,78.33,222.64,175,0,38.07-15.39,73.35-41.65,102.11,26.13,19.89,67.62,45.35,108.16,45.35-28.88-27.33-30.91-88.07-30.15-116.08Zm0,0"/></svg>