<svg id="Layer_15" data-name="Layer 15" xmlns="http://www.w3.org/2000/svg" width="512" height="512" viewBox="0 0 512 512"><defs><style>.cls-1{fill:#ee2a7b;}</style></defs><title>digitalhr-icon-color</title><path class="cls-1" d="M256,512A228.4,228.4,0,0,1,94.58,122.12a35.12,35.12,0,1,1,49.75,49.58,158.08,158.08,0,1,0,223.51,0,35.05,35.05,0,0,1,49.57-49.58A228.4,228.4,0,0,1,256,512Zm0,0"/><path class="cls-1" d="M256,245.94a35.22,35.22,0,0,1-35.17-35.17V35.13a35.17,35.17,0,0,1,70.35,0V210.77A35.19,35.19,0,0,1,256,245.94Zm0,0"/></svg>