<svg id="Layer_5" data-name="Layer 5" xmlns="http://www.w3.org/2000/svg" width="512" height="512" viewBox="0 0 512 512"><defs><style>.cls-1{fill:#3b8954;}</style></defs><title>diversity&amp;amp;inclusion-icon-color</title><path class="cls-1" d="M256.2.25c-141.38,0-256,114.62-256,256s114.62,256,256,256,256-114.62,256-256S397.59.25,256.2.25ZM360.93,151.53A34.91,34.91,0,1,1,326,186.43a34.91,34.91,0,0,1,34.91-34.91Zm-209.45,0a34.91,34.91,0,1,1-34.91,34.91,34.91,34.91,0,0,1,34.91-34.91ZM256.2,444A176.43,176.43,0,0,1,87.68,319.73H424.73A176.44,176.44,0,0,1,256.2,444Zm0,0"/></svg>