<svg id="Layer_11" data-name="Layer 11" xmlns="http://www.w3.org/2000/svg" width="512" height="512" viewBox="0 0 512 512"><defs><style>.cls-1{fill:#d1d1d1;}</style></defs><title>formal-icon</title><path class="cls-1" d="M328.11,28.84c-.07,21.66-17.92,50.5-28.74,61.3S270.44,100.95,256,100.95s-32.53,0-43.38-10.81S184,50.5,183.89,28.84C183.78,3.59,227.9,0,256,0s72.22,3.59,72.11,28.84ZM219.39,118.34,194.14,405.52a79.29,79.29,0,0,0,20,60L256,512l43.52-45.81a79.19,79.19,0,0,0,21.41-62.43l-28.2-285.49a7.26,7.26,0,0,0-7.22-6.52H226.56a7.23,7.23,0,0,0-7.17,6.59Zm0,0"/></svg>