<svg id="Layer_1" data-name="Layer 1" xmlns="http://www.w3.org/2000/svg" width="512" height="512" viewBox="0 0 512 512"><defs><style>.cls-1{fill:#d1d1d1;}</style></defs><title>home-icon</title><path class="cls-1" d="M502.06,243.23H472.93V490.36a14.15,14.15,0,0,1-14.11,14.11h-116a7.38,7.38,0,0,1-7.37-7.37V359.2a7.38,7.38,0,0,0-7.37-7.37h-143a7.38,7.38,0,0,0-7.37,7.37V497.1a7.38,7.38,0,0,1-7.37,7.37h-116a14.14,14.14,0,0,1-14.11-14.11V243.23H11.12a10.51,10.51,0,0,1-6.91-18.42L249.68,10.6a10.5,10.5,0,0,1,13.81,0L509,224.81A10.51,10.51,0,0,1,502.06,243.23Z"/></svg>