<svg id="Layer_8" data-name="Layer 8" xmlns="http://www.w3.org/2000/svg" width="512" height="512" viewBox="0 0 512 512"><defs><style>.cls-1{fill:#d1d1d1;}</style></defs><title>hrss&amp;amp;payroll-icon</title><path class="cls-1" d="M58.14,214a40.88,40.88,0,0,0,37.69-25.07C122.12,126.29,183.94,82.15,256,82.15a171.5,171.5,0,0,1,105.33,36.19l-22.88,3.55a17.85,17.85,0,0,0-4.59,33.92l125.83,56.61a17.85,17.85,0,0,0,25.18-16.2l.65-138.65a17.85,17.85,0,0,0-32.71-10L435.47,73.66A255.09,255.09,0,0,0,256,0C150.07,0,59,64.69,20.14,156.63a41.28,41.28,0,0,0,38,57.36Zm0,0"/><path class="cls-1" d="M488.26,316.49a41,41,0,0,0-72.09,6.58C389.88,385.71,328.06,429.85,256,429.85a171.52,171.52,0,0,1-105.33-36.19l22.88-3.55a17.85,17.85,0,0,0,4.59-33.92L52.31,299.58a17.86,17.86,0,0,0-25.18,16.2l-.65,138.65a17.85,17.85,0,0,0,32.71,10l17.34-26.07A255.09,255.09,0,0,0,256,512c105.93,0,197-64.69,235.85-156.63a41.26,41.26,0,0,0-3.6-38.87Zm0,0"/></svg>