<svg id="Layer_10" data-name="Layer 10" xmlns="http://www.w3.org/2000/svg" width="512" height="512" viewBox="0 0 512 512"><defs><style>.cls-1{fill:#bb6e3d;fill-rule:evenodd;}</style></defs><title>hrtechnology-icon-color</title><path class="cls-1" d="M510.39,227.58c-.81-7.2-9.2-12.61-16.45-12.61-23.46,0-44.28-13.77-53-35.08a57,57,0,0,1,14.32-63.3,14.23,14.23,0,0,0,1.56-19.31,253.29,253.29,0,0,0-40.56-41,14.26,14.26,0,0,0-19.46,1.57c-15.25,16.9-42.67,23.18-63.85,14.34a56.86,56.86,0,0,1-34.57-55.58,14.21,14.21,0,0,0-12.57-15,255.41,255.41,0,0,0-57.6-.15A14.24,14.24,0,0,0,215.53,16.2a57,57,0,0,1-35.06,54.62c-20.93,8.55-48.15,2.32-63.37-14.44a14.27,14.27,0,0,0-19.32-1.62A254.43,254.43,0,0,0,56.36,95.71a14.24,14.24,0,0,0,1.53,19.45A56.73,56.73,0,0,1,72.2,179c-8.84,21-30.69,34.6-55.7,34.6A13.93,13.93,0,0,0,1.71,226.22a256.38,256.38,0,0,0-.11,58.21c.81,7.23,9.45,12.6,16.79,12.6,22.3-.57,43.69,13.23,52.68,35.08a56.94,56.94,0,0,1-14.32,63.31A14.21,14.21,0,0,0,55.2,414.7a254.09,254.09,0,0,0,40.49,41,14.23,14.23,0,0,0,19.49-1.55c15.32-16.94,42.73-23.21,63.82-14.35a56.78,56.78,0,0,1,34.64,55.56,14.21,14.21,0,0,0,12.56,15,255,255,0,0,0,57.6.16,14.25,14.25,0,0,0,12.67-14.66,56.91,56.91,0,0,1,35-54.59c21.07-8.6,48.17-2.31,63.4,14.42a14.3,14.3,0,0,0,19.32,1.62,255.06,255.06,0,0,0,41.41-40.95,14.22,14.22,0,0,0-1.53-19.46A56.71,56.71,0,0,1,439.76,333a57.31,57.31,0,0,1,52.37-34.71l3.16.08a14.25,14.25,0,0,0,15-12.56,255.44,255.44,0,0,0,.11-58.21Zm-254,114.36a85.39,85.39,0,1,1,85.39-85.39,85.48,85.48,0,0,1-85.39,85.39Zm0,0"/></svg>