<svg id="Layer_4" data-name="Layer 4" xmlns="http://www.w3.org/2000/svg" width="512" height="512" viewBox="0 0 512 512"><defs><style>.cls-1{fill:#00a29a;}</style></defs><title>learning-icon-icon</title><path class="cls-1" d="M319.12,383.15H192.52a17.07,17.07,0,0,0,0,34.13h126.6a17.07,17.07,0,1,0,0-34.13Zm0,0"/><path class="cls-1" d="M222.64,483.95v9.3a19,19,0,0,0,19,19H270a19,19,0,0,0,19-19v-9.3a41.32,41.32,0,0,0,38.52-41.15H184.1a41.33,41.33,0,0,0,38.54,41.15Zm0,0"/><path class="cls-1" d="M255.82.25A170.85,170.85,0,0,0,121.38,276.8a730.32,730.32,0,0,1,56,82H334.23a727.75,727.75,0,0,1,56-82A170.86,170.86,0,0,0,255.82.25Zm.28,59.34A110.21,110.21,0,0,0,146,169.69a17.07,17.07,0,0,1-34.14,0c0-79.52,64.7-144.22,144.24-144.22a17.07,17.07,0,1,1,0,34.13Zm0,0"/></svg>