<svg id="Layer_2" data-name="Layer 2" xmlns="http://www.w3.org/2000/svg" width="512" height="512" viewBox="0 0 512 512"><defs><style>.cls-1{fill:#18a7e0;}</style></defs><title>mainstage-icon-color</title><path class="cls-1" d="M401.15,270.09h-43a102.25,102.25,0,0,1-204.49,0H110.55A145.32,145.32,0,0,0,235.1,413.91v90.8c0,4.16,4.13,7.54,9.22,7.54h23.06c5.09,0,9.22-3.38,9.22-7.54v-90.8A145.32,145.32,0,0,0,401.15,270.09Zm0,0"/><path class="cls-1" d="M345.8,90.2a89.95,89.95,0,0,0-179.9,0v173a89.95,89.95,0,1,0,179.9,0Zm0,0"/></svg>