<svg id="Layer_17" data-name="Layer 17" xmlns="http://www.w3.org/2000/svg" width="512" height="512" viewBox="0 0 512 512"><defs><style>.cls-1{fill:#ef993a;}</style></defs><title>messagespread-icon-color</title><path class="cls-1" d="M246,103.7,78.76,368c-4.14,6.54-13.45,14.16-20.68,16.92L6.78,404.54c-7.24,2.76-9,9.77-3.83,15.56l57.45,65c5.13,5.8,12.3,5,15.94-1.89l24.47-46.09c3.64-6.84,12.68-14.25,20.1-16.46L132,417.4A51,51,0,0,0,194.38,447L265,425.11a51,51,0,0,0,35.09-57.71l120.24-35.75Zm12.7,301.23-70.61,21.9a29.85,29.85,0,0,1-35.67-15.53l127.2-37.82A29.92,29.92,0,0,1,258.73,404.93Z"/><path class="cls-1" d="M509.56,291.37,309.87,27.48c-4.68-6.18-11.89-5.88-16,.67L262.09,78.33,449.21,323.07l55.35-16.46C512,304.4,514.24,297.54,509.56,291.37Z"/></svg>