<svg id="Layer_19" data-name="Layer 19" xmlns="http://www.w3.org/2000/svg" width="512" height="512" viewBox="0 0 512 512"><defs><style>.cls-1{fill:#d1d1d1;}</style></defs><title>thinktank2-icon</title><path class="cls-1" d="M53,480.1C2.59,451.72-14.77,387.91,13.62,337.52c22.71-40.32,63.64-62.25,112.5-50.78l51.72-91.83c-35.06-36-37.6-82.21-14.89-122.52,28.38-50.4,91.24-69,141.63-40.64s68.45,92.58,40.07,143a110.61,110.61,0,0,1-12,17l34.92,59.13-.08.14a132.55,132.55,0,0,0-57.78,33.84L274.85,226c-13.37,2.79-24.82,4.46-41,.5L182.1,318.28c11.79,11.8,16.31,23.36,20.85,36.25l68.46.18h.94c-4.95,16.07-5.52,45.21.13,66.28l-68.81.25a107.23,107.23,0,0,1-8.35,18.85A104.42,104.42,0,0,1,53,480.1Z"/><circle class="cls-1" cx="407.47" cy="384.73" r="104.51" transform="translate(-127.7 550.97) rotate(-60.61)"/></svg>