<svg id="Layer_20" data-name="Layer 20" xmlns="http://www.w3.org/2000/svg" width="512" height="512" viewBox="0 0 512 512"><defs><style>.cls-1{fill:#3f80c2;}.cls-2{fill:#316628;}</style></defs><title>thinktank3-icon-color</title><path class="cls-1" d="M202.31,33.83c50-29,113.77-11.55,142.76,38.48,23.19,40,21.3,86.4-13.38,122.65L384.5,286.1c48.77-11.93,89.87,9.35,113.06,49.37,29,50,13.12,113.6-36.9,142.59S346.2,490,317.21,440a110.57,110.57,0,0,1-8.58-19l-68.64.06-.08-.14A132.5,132.5,0,0,0,240.1,354l68.42-.12c4.38-12.93,8.76-23.64,20.4-35.58L276.1,227.16c-16.15,4.16-27.61,2.64-41,0L201,286.48l-.45.82c-16.27-15.26-36.92-28.16-57.93-34L176.9,193.7a109.24,109.24,0,0,1-12.19-16.88C135.72,126.8,152.28,62.82,202.31,33.83Z"/><circle class="cls-2" cx="104.48" cy="387.5" r="104.47" transform="matrix(0.87, -0.5, 0.5, 0.87, -180.2, 104.61)"/></svg>