<svg id="Layer_18" data-name="Layer 18" xmlns="http://www.w3.org/2000/svg" width="512" height="512" viewBox="0 0 512 512"><defs><style>.cls-1{fill:#d1d1d1;}</style></defs><title>thinktank-icon</title><path class="cls-1" d="M512,386.62c0,57.6-46.88,103.84-104.48,103.84-46.08,0-85.12-24.8-99-72.8h-105c-14.08,48-53,72.8-99,72.8C46.88,490.46,0,445,0,387.42S46.88,282.78,104.48,282.78a110.16,110.16,0,0,1,20.64,2.08l34.24-59.2h.16a132,132,0,0,0,57.6,33.6L183,318.3c9,10.24,16,19.36,20.48,35.36h105C313,337.66,320,328.54,329,318.3l-34.08-59-.48-.8c21.28-6.4,42.72-17.76,58.24-33l34.24,59.36a108.83,108.83,0,0,1,20.64-2.08C465.12,282.78,512,329,512,386.62Z"/><circle class="cls-1" cx="256" cy="125.62" r="104.08"/></svg>