<svg id="Layer_12" data-name="Layer 12" xmlns="http://www.w3.org/2000/svg" width="512" height="512" viewBox="0 0 512 512"><defs><style>.cls-1{fill:#d1d1d1;}</style></defs><title>wellbeing&amp;amp;rewards-icon</title><path class="cls-1" d="M451.69,338.62C427.14,378.31,348.85,407.31,256,407.31s-171.14-29-195.66-68.69c-5.2-8.39-8-3.9-8,.28v58.23C52.36,453.53,143.52,512,256,512s203.64-58.47,203.64-114.86V338.9c0-4.18-2.79-8.67-8-.28ZM452,189.81c-24.12,35.08-102.73,60.82-196,60.82S84.12,224.89,60,189.81c-5-7.22-7.64-3.29-7.64,0v68.55c0,51.27,91.17,92.81,203.64,92.81s203.64-41.54,203.64-92.81V189.78c0-3.27-2.67-7.19-7.64,0ZM256,0C143.52,0,52.36,34.29,52.36,76.59v36.62c0,44.86,91.17,81.22,203.64,81.22s203.64-36.36,203.64-81.22V76.59C459.64,34.29,368.48,0,256,0Zm0,0"/></svg>